<svg width="52.444336" height="62.527344" viewBox="0 0 52.4443 62.5273" fill="none" xmlns="http://www.w3.org/2000/svg" xmlns:xlink="http://www.w3.org/1999/xlink">
	<desc>
			Created with Pixso.
	</desc>
	<defs/>
	<path id="Vector" d="M29.53 1.12L32.86 3.61C33.77 4.29 34.73 4.64 35.87 4.7L40.02 4.93C42.51 5.07 44.53 6.77 45.1 9.19L46.05 13.24C46.31 14.35 46.82 15.24 47.65 16.01L50.68 18.86C52.5 20.57 52.95 23.16 51.83 25.39L49.95 29.1C49.44 30.12 49.26 31.12 49.4 32.25L49.89 36.38C50.19 38.86 48.87 41.14 46.58 42.12L42.75 43.76C41.71 44.21 40.93 44.86 40.3 45.81L38.03 49.3C36.66 51.38 34.18 52.28 31.8 51.56L27.82 50.36C26.73 50.03 25.71 50.03 24.62 50.36L20.63 51.56C18.25 52.28 15.77 51.38 14.41 49.3L12.13 45.81C11.51 44.86 10.73 44.21 9.68 43.76L5.86 42.12C3.57 41.14 2.25 38.86 2.54 36.38L3.04 32.25C3.17 31.12 2.99 30.12 2.48 29.1L0.6 25.39C-0.52 23.16 -0.06 20.57 1.75 18.86L4.79 16.01C5.62 15.23 6.13 14.35 6.39 13.24L7.34 9.19C7.91 6.77 9.93 5.07 12.41 4.93L16.57 4.7C17.7 4.64 18.66 4.29 19.57 3.61L22.9 1.11C24.9 -0.38 27.54 -0.38 29.53 1.12ZM24.09 27.33L20.48 23.71C19.54 22.78 18.02 22.78 17.08 23.71C16.15 24.65 16.15 26.17 17.08 27.11L22.4 32.42C23.34 33.36 24.86 33.36 25.79 32.42C29 29.22 32.17 25.98 35.36 22.76C36.29 21.82 36.28 20.31 35.35 19.37C34.41 18.44 32.89 18.44 31.96 19.38L24.09 27.33ZM26.22 7.89C21.24 7.89 16.74 9.91 13.48 13.17C10.22 16.42 8.21 20.93 8.21 25.9C8.21 30.87 10.22 35.38 13.48 38.64C16.74 41.9 21.24 43.91 26.22 43.91C31.19 43.91 35.69 41.9 38.95 38.64C42.21 35.38 44.23 30.87 44.23 25.9C44.23 20.93 42.21 16.42 38.95 13.17C35.69 9.91 31.19 7.89 26.22 7.89ZM37.52 14.6C34.62 11.71 30.63 9.92 26.22 9.92C21.8 9.92 17.81 11.71 14.92 14.6C12.03 17.49 10.24 21.49 10.24 25.9C10.24 30.31 12.03 34.31 14.92 37.2C17.81 40.09 21.8 41.88 26.22 41.88C30.63 41.88 34.62 40.09 37.52 37.2C40.41 34.31 42.2 30.31 42.2 25.9C42.2 21.49 40.41 17.49 37.52 14.6ZM32.98 53.82L36.93 62.3C36.99 62.43 37.11 62.52 37.26 62.52C37.41 62.53 37.53 62.46 37.61 62.33L40.55 57.27L46.32 58.27C46.47 58.3 46.6 58.25 46.69 58.13C46.78 58.02 46.8 57.87 46.73 57.74L41.83 47.2L39.73 50.41C38.21 52.73 35.64 53.98 32.98 53.82ZM19.6 53.81C16.89 54.03 14.25 52.77 12.71 50.41L10.69 47.33L5.85 57.74C5.79 57.87 5.8 58.02 5.89 58.13C5.98 58.25 6.11 58.3 6.26 58.27L12.03 57.27L14.98 62.33C15.05 62.46 15.18 62.53 15.32 62.52C15.47 62.52 15.59 62.43 15.65 62.3L19.6 53.81Z" fill="#F1FD5F" fill-opacity="1.000000" fill-rule="evenodd"/>
</svg>
