<svg width="16.000000" height="16.000000" viewBox="0 0 16 16" fill="none" xmlns="http://www.w3.org/2000/svg" xmlns:xlink="http://www.w3.org/1999/xlink">
	<desc>
			Created with Pixso.
	</desc>
	<defs>
		<clipPath id="clip1006_8069">
			<rect id="check-o" rx="0.000000" width="15.333333" height="15.333333" transform="translate(0.333333 0.333333)" fill="white" fill-opacity="0"/>
		</clipPath>
	</defs>
	<g clip-path="url(#clip1006_8069)">
		<path id="check-o" d="M8 0.66C3.94 0.66 0.66 3.94 0.66 8C0.66 12.04 3.94 15.33 8 15.33C12.05 15.33 15.33 12.04 15.33 8C15.33 3.94 12.05 0.66 8 0.66ZM2 8C2 11.31 4.68 14 8 14C11.31 14 14 11.31 14 8C14 4.68 11.31 2 8 2C4.68 2 2 4.68 2 8ZM4 8.04L6.82 10.87L11.54 6.16L10.59 5.21L6.82 8.99L4.94 7.1L4 8.04Z" fill="#F1FD5F" fill-opacity="1.000000" fill-rule="evenodd"/>
	</g>
</svg>
