<svg width="16.000000" height="16.000000" viewBox="0 0 16 16" fill="none" xmlns="http://www.w3.org/2000/svg" xmlns:xlink="http://www.w3.org/1999/xlink">
	<desc>
			Created with Pixso.
	</desc>
	<defs>
		<clipPath id="clip1006_8002">
			<rect id="close-o" rx="0.000000" width="15.333333" height="15.333333" transform="translate(0.333333 0.333333)" fill="white" fill-opacity="0"/>
		</clipPath>
	</defs>
	<g clip-path="url(#clip1006_8002)">
		<path id="close-o" d="M7.99 0.66C3.94 0.66 0.66 3.94 0.66 8C0.66 12.04 3.94 15.33 7.99 15.33C12.04 15.33 15.33 12.04 15.33 8C15.33 3.94 12.04 0.66 7.99 0.66ZM1.99 8C1.99 11.31 4.68 14 7.99 14C11.31 14 13.99 11.31 13.99 8C13.99 4.68 11.31 2 7.99 2C4.68 2 1.99 4.68 1.99 8ZM10.92 5.27C11.17 5.54 11.16 5.96 10.89 6.21L8.94 8.03L10.76 9.98C11.01 10.25 10.99 10.67 10.72 10.92C10.45 11.17 10.03 11.16 9.78 10.89L7.96 8.94L6.01 10.76C5.74 11.01 5.32 10.99 5.07 10.72C4.82 10.45 4.83 10.03 5.1 9.78L7.05 7.96L5.23 6.01C4.98 5.74 5 5.32 5.27 5.07C5.54 4.82 5.96 4.83 6.21 5.1L8.03 7.05L9.98 5.23C10.25 4.98 10.67 5 10.92 5.27Z" fill="#9FA7AF" fill-opacity="1.000000" fill-rule="evenodd"/>
	</g>
</svg>
