<svg width="281.000000" height="20.000000" viewBox="0 0 281 20" fill="none" xmlns="http://www.w3.org/2000/svg" xmlns:xlink="http://www.w3.org/1999/xlink">
	<desc>
			Created with Pixso.
	</desc>
	<defs>
		<clipPath id="clip1014_8322">
			<rect id="PayPal-1080c8a4 1" rx="0.000000" width="31.000000" height="19.000000" transform="translate(0.500000 0.500000)" fill="white" fill-opacity="0"/>
		</clipPath>
		<clipPath id="clip1014_8329">
			<rect id="Amex-08f55bd0" rx="0.000000" width="31.000000" height="19.000000" transform="translate(42.000000 0.500000)" fill="white" fill-opacity="0"/>
		</clipPath>
		<clipPath id="clip1014_8333">
			<rect id="Maestro-5e7a9513" rx="0.000000" width="31.000000" height="19.000000" transform="translate(83.500000 0.500000)" fill="white" fill-opacity="0"/>
		</clipPath>
		<clipPath id="clip1014_8339">
			<rect id="ApplePay-43de54de" rx="0.000000" width="31.000000" height="19.000000" transform="translate(125.000000 0.500000)" fill="white" fill-opacity="0"/>
		</clipPath>
		<clipPath id="clip1014_8343">
			<rect id="Master-7b547f21" rx="0.000000" width="31.000000" height="19.000000" transform="translate(166.500000 0.500000)" fill="white" fill-opacity="0"/>
		</clipPath>
		<clipPath id="clip1014_8349">
			<rect id="Discover-43f93fef" rx="0.000000" width="31.000000" height="19.000000" transform="translate(208.000000 0.500000)" fill="white" fill-opacity="0"/>
		</clipPath>
		<clipPath id="clip1014_8359">
			<rect id="Visa-9531d60e" rx="0.000000" width="31.000000" height="19.000000" transform="translate(249.500000 0.500000)" fill="white" fill-opacity="0"/>
		</clipPath>
	</defs>
	<rect id="PayPal-1080c8a4 1" rx="0.000000" width="31.000000" height="19.000000" transform="translate(0.500000 0.500000)" fill="#FFFFFF" fill-opacity="0"/>
	<g clip-path="url(#clip1014_8322)">
		<path id="Vector" d="M2 0.25L30 0.25C30.96 0.25 31.75 1.03 31.75 2L31.75 18C31.75 18.96 30.96 19.75 30 19.75L2 19.75C1.03 19.75 0.25 18.96 0.25 18L0.25 2C0.25 1.03 1.03 0.25 2 0.25Z" fill="#FFFFFF" fill-opacity="1.000000" fill-rule="evenodd"/>
		<path id="Vector" d="M30 0.25C30.96 0.25 31.75 1.03 31.75 2L31.75 18C31.75 18.96 30.96 19.75 30 19.75L2 19.75C1.03 19.75 0.25 18.96 0.25 18L0.25 2C0.25 1.03 1.03 0.25 2 0.25L30 0.25Z" stroke="#000000" stroke-opacity="1.000000" stroke-width="0.500000"/>
		<path id="Vector" d="M14.01 15.11L14.2 13.9L13.78 13.89L11.77 13.89L13.17 4.98C13.17 4.95 13.18 4.93 13.2 4.91C13.23 4.89 13.25 4.88 13.28 4.88L16.66 4.88C17.78 4.88 18.55 5.12 18.95 5.58C19.14 5.8 19.26 6.03 19.32 6.28C19.38 6.54 19.38 6.86 19.32 7.24L19.32 7.27L19.32 7.52L19.51 7.62C19.67 7.71 19.8 7.81 19.89 7.92C20.06 8.11 20.16 8.34 20.2 8.62C20.25 8.91 20.24 9.26 20.16 9.65C20.07 10.09 19.93 10.48 19.75 10.8C19.57 11.1 19.35 11.34 19.09 11.53C18.84 11.71 18.54 11.85 18.2 11.93C17.88 12.02 17.51 12.06 17.1 12.06L16.83 12.06C16.65 12.06 16.46 12.13 16.32 12.25C16.18 12.38 16.08 12.55 16.05 12.74L16.03 12.84L15.7 14.97L15.69 15.05C15.68 15.08 15.67 15.09 15.66 15.1C15.66 15.1 15.64 15.11 15.63 15.11L14.01 15.11Z" fill="#28356A" fill-opacity="1.000000" fill-rule="evenodd"/>
		<path id="Vector" d="M19.69 7.3C19.68 7.36 19.67 7.43 19.65 7.5C19.21 9.8 17.69 10.6 15.74 10.6L14.75 10.6C14.51 10.6 14.31 10.78 14.27 11.01L13.62 15.18C13.6 15.34 13.72 15.48 13.87 15.48L15.63 15.48C15.84 15.48 16.01 15.33 16.05 15.12L16.06 15.03L16.4 12.91L16.42 12.79C16.45 12.58 16.63 12.43 16.83 12.43L17.1 12.43C18.8 12.43 20.13 11.73 20.52 9.71C20.68 8.87 20.6 8.17 20.17 7.67C20.04 7.52 19.88 7.4 19.69 7.3Z" fill="#298FC2" fill-opacity="1.000000" fill-rule="evenodd"/>
		<path id="Vector" d="M19.22 7.11C19.15 7.09 19.08 7.07 19.01 7.05C18.94 7.04 18.87 7.03 18.79 7.01C18.52 6.97 18.23 6.95 17.92 6.95L15.27 6.95C15.2 6.95 15.14 6.96 15.09 6.99C14.96 7.05 14.87 7.17 14.85 7.31L14.29 10.91L14.27 11.01C14.31 10.78 14.51 10.6 14.75 10.6L15.74 10.6C17.68 10.6 19.21 9.81 19.65 7.5C19.67 7.43 19.68 7.36 19.69 7.3C19.58 7.24 19.45 7.19 19.32 7.14C19.29 7.13 19.26 7.12 19.22 7.11Z" fill="#22284F" fill-opacity="1.000000" fill-rule="evenodd"/>
		<path id="Vector" d="M14.85 7.31C14.87 7.17 14.96 7.05 15.09 6.99C15.14 6.96 15.2 6.95 15.27 6.95L17.92 6.95C18.23 6.95 18.52 6.97 18.79 7.01C18.87 7.03 18.94 7.04 19.01 7.06C19.08 7.07 19.15 7.09 19.22 7.11C19.26 7.12 19.29 7.13 19.32 7.14C19.45 7.19 19.58 7.24 19.69 7.3C19.82 6.44 19.69 5.86 19.23 5.34C18.73 4.76 17.82 4.51 16.65 4.51L13.28 4.51C13.04 4.51 12.84 4.69 12.8 4.92L11.39 13.93C11.37 14.1 11.5 14.26 11.68 14.26L13.77 14.26L14.85 7.31Z" fill="#28356A" fill-opacity="1.000000" fill-rule="evenodd"/>
	</g>
	<rect id="Amex-08f55bd0" rx="0.000000" width="31.000000" height="19.000000" transform="translate(42.000000 0.500000)" fill="#FFFFFF" fill-opacity="0"/>
	<g clip-path="url(#clip1014_8329)">
		<path id="Vector" d="M43.5 0.25L71.5 0.25C72.46 0.25 73.25 1.03 73.25 2L73.25 18C73.25 18.96 72.46 19.75 71.5 19.75L43.5 19.75C42.53 19.75 41.75 18.96 41.75 18L41.75 2C41.75 1.03 42.53 0.25 43.5 0.25Z" fill="#1F72CD" fill-opacity="1.000000" fill-rule="evenodd"/>
		<path id="Vector" d="M71.5 0.25C72.46 0.25 73.25 1.03 73.25 2L73.25 18C73.25 18.96 72.46 19.75 71.5 19.75L43.5 19.75C42.53 19.75 41.75 18.96 41.75 18L41.75 2C41.75 1.03 42.53 0.25 43.5 0.25L71.5 0.25Z" stroke="#000000" stroke-opacity="1.000000" stroke-width="0.500000"/>
		<path id="Vector" d="M48.19 6.97L45.47 13.01L48.72 13.01L49.12 12.05L50.05 12.05L50.45 13.01L54.02 13.01L54.02 12.28L54.34 13.01L56.19 13.01L56.51 12.26L56.51 13.01L63.95 13.01L64.85 12.07L65.7 13.01L69.52 13.02L66.79 10.01L69.52 6.97L65.76 6.97L64.88 7.89L64.06 6.97L55.97 6.97L55.27 8.53L54.56 6.97L51.32 6.97L51.32 7.68L50.96 6.97L48.19 6.97ZM48.82 7.83L50.4 7.83L52.2 11.92L52.2 7.83L53.93 7.83L55.32 10.77L56.6 7.83L58.33 7.83L58.33 12.16L57.28 12.16L57.27 8.77L55.74 12.16L54.8 12.16L53.26 8.77L53.26 12.16L51.1 12.16L50.69 11.19L48.48 11.19L48.07 12.16L46.91 12.16L48.82 7.83ZM63.56 7.83L59.29 7.83L59.29 12.16L63.5 12.16L64.85 10.72L66.16 12.16L67.52 12.16L65.54 10.01L67.52 7.83L66.22 7.83L64.87 9.25L63.56 7.83ZM49.59 8.56L48.86 10.29L50.31 10.29L49.59 8.56ZM60.35 9.52L60.35 8.73L63.01 8.73L64.17 9.99L62.96 11.26L60.35 11.26L60.35 10.4L62.67 10.4L62.67 9.52L60.35 9.52Z" fill="#FFFFFF" fill-opacity="1.000000" fill-rule="evenodd"/>
	</g>
	<rect id="Maestro-5e7a9513" rx="0.000000" width="31.000000" height="19.000000" transform="translate(83.500000 0.500000)" fill="#FFFFFF" fill-opacity="0"/>
	<g clip-path="url(#clip1014_8333)">
		<path id="Vector" d="M85 0.25L113 0.25C113.96 0.25 114.75 1.03 114.75 2L114.75 18C114.75 18.96 113.96 19.75 113 19.75L85 19.75C84.03 19.75 83.25 18.96 83.25 18L83.25 2C83.25 1.03 84.03 0.25 85 0.25Z" fill="#FFFFFF" fill-opacity="1.000000" fill-rule="evenodd"/>
		<path id="Vector" d="M113 0.25C113.96 0.25 114.75 1.03 114.75 2L114.75 18C114.75 18.96 113.96 19.75 113 19.75L85 19.75C84.03 19.75 83.25 18.96 83.25 18L83.25 2C83.25 1.03 84.03 0.25 85 0.25L113 0.25Z" stroke="#000000" stroke-opacity="1.000000" stroke-width="0.500000"/>
		<path id="Vector" d="M100.94 10C100.94 13.08 98.46 15.58 95.41 15.58C92.36 15.58 89.89 13.08 89.89 10C89.89 6.91 92.36 4.41 95.41 4.41C98.46 4.41 100.94 6.91 100.94 10Z" fill="#ED0006" fill-opacity="1.000000" fill-rule="nonzero"/>
		<path id="Vector" d="M108.1 10C108.1 13.08 105.63 15.58 102.58 15.58C99.53 15.58 97.05 13.08 97.05 10C97.05 6.91 99.53 4.41 102.58 4.41C105.63 4.41 108.1 6.91 108.1 10Z" fill="#0099DF" fill-opacity="1.000000" fill-rule="nonzero"/>
		<path id="Vector" d="M99 14.25C100.18 13.22 100.94 11.7 100.94 10C100.94 8.29 100.18 6.77 99 5.74C97.81 6.77 97.05 8.29 97.05 10C97.05 11.7 97.81 13.22 99 14.25Z" fill="#6C6BBD" fill-opacity="1.000000" fill-rule="evenodd"/>
	</g>
	<rect id="ApplePay-43de54de" rx="0.000000" width="31.000000" height="19.000000" transform="translate(125.000000 0.500000)" fill="#FFFFFF" fill-opacity="0"/>
	<g clip-path="url(#clip1014_8339)">
		<path id="Vector" d="M126.5 0.25L154.5 0.25C155.46 0.25 156.25 1.03 156.25 2L156.25 18C156.25 18.96 155.46 19.75 154.5 19.75L126.5 19.75C125.53 19.75 124.75 18.96 124.75 18L124.75 2C124.75 1.03 125.53 0.25 126.5 0.25Z" fill="#FFFFFF" fill-opacity="1.000000" fill-rule="evenodd"/>
		<path id="Vector" d="M154.5 0.25C155.46 0.25 156.25 1.03 156.25 2L156.25 18C156.25 18.96 155.46 19.75 154.5 19.75L126.5 19.75C125.53 19.75 124.75 18.96 124.75 18L124.75 2C124.75 1.03 125.53 0.25 126.5 0.25L154.5 0.25Z" stroke="#000000" stroke-opacity="1.000000" stroke-width="0.500000"/>
		<path id="Vector" d="M133.43 6.42C133.7 6.08 133.88 5.63 133.83 5.18C133.44 5.2 132.96 5.43 132.68 5.77C132.44 6.06 132.22 6.52 132.27 6.96C132.71 7 133.15 6.74 133.43 6.42ZM133.83 7.05C133.44 7.03 133.08 7.16 132.8 7.28C132.61 7.35 132.46 7.41 132.34 7.41C132.21 7.41 132.05 7.35 131.86 7.28C131.62 7.18 131.35 7.07 131.06 7.08C130.41 7.09 129.8 7.46 129.46 8.05C128.78 9.23 129.28 10.99 129.95 11.95C130.27 12.42 130.66 12.95 131.18 12.93C131.4 12.92 131.56 12.85 131.73 12.78C131.92 12.7 132.13 12.62 132.44 12.62C132.75 12.62 132.94 12.7 133.12 12.78C133.3 12.85 133.47 12.93 133.72 12.92C134.25 12.91 134.59 12.44 134.91 11.97C135.26 11.45 135.42 10.96 135.44 10.88L135.44 10.87C135.44 10.87 135.44 10.87 135.43 10.87C135.31 10.81 134.42 10.4 134.41 9.3C134.4 8.38 135.11 7.91 135.23 7.83C135.24 7.83 135.24 7.82 135.25 7.82C134.79 7.14 134.07 7.07 133.83 7.05ZM141.74 8.07C141.74 6.68 140.77 5.72 139.38 5.72L136.7 5.72L136.7 12.87L137.81 12.87L137.81 10.43L139.35 10.43C140.75 10.43 141.74 9.47 141.74 8.07ZM139.09 9.5L137.81 9.5L137.81 6.66L139.09 6.66C140.05 6.66 140.6 7.17 140.6 8.07C140.6 8.98 140.05 9.5 139.09 9.5ZM142.03 11.39C142.03 10.48 142.73 9.92 143.96 9.85L145.39 9.76L145.39 9.36C145.39 8.78 145 8.44 144.35 8.44C143.73 8.44 143.34 8.73 143.25 9.2L142.24 9.2C142.29 8.26 143.1 7.56 144.39 7.56C145.65 7.56 146.46 8.23 146.46 9.28L146.46 12.87L145.43 12.87L145.43 12.01L145.41 12.01C145.1 12.59 144.45 12.96 143.76 12.96C142.74 12.96 142.03 12.33 142.03 11.39ZM145.39 10.92L145.39 10.51L144.11 10.59C143.47 10.63 143.11 10.91 143.11 11.36C143.11 11.82 143.48 12.11 144.06 12.11C144.81 12.11 145.39 11.6 145.39 10.92ZM147.42 13.92L147.42 14.79C147.5 14.8 147.77 14.81 147.86 14.81C148.94 14.81 149.46 14.41 149.9 13.14L151.86 7.66L150.73 7.66L149.41 11.9L149.39 11.9L148.07 7.66L146.91 7.66L148.79 12.88C148.79 12.88 148.78 12.93 148.76 13C148.73 13.08 148.7 13.19 148.7 13.2C148.53 13.73 148.27 13.94 147.77 13.94C147.68 13.94 147.5 13.94 147.42 13.92Z" fill="#000000" fill-opacity="1.000000" fill-rule="evenodd"/>
	</g>
	<rect id="Master-7b547f21" rx="0.000000" width="31.000000" height="19.000000" transform="translate(166.500000 0.500000)" fill="#FFFFFF" fill-opacity="0"/>
	<g clip-path="url(#clip1014_8343)">
		<path id="Vector" d="M168 0.25L196 0.25C196.96 0.25 197.75 1.03 197.75 2L197.75 18C197.75 18.96 196.96 19.75 196 19.75L168 19.75C167.03 19.75 166.25 18.96 166.25 18L166.25 2C166.25 1.03 167.03 0.25 168 0.25Z" fill="#FFFFFF" fill-opacity="1.000000" fill-rule="evenodd"/>
		<path id="Vector" d="M196 0.25C196.96 0.25 197.75 1.03 197.75 2L197.75 18C197.75 18.96 196.96 19.75 196 19.75L168 19.75C167.03 19.75 166.25 18.96 166.25 18L166.25 2C166.25 1.03 167.03 0.25 168 0.25L196 0.25Z" stroke="#000000" stroke-opacity="1.000000" stroke-width="0.500000"/>
		<path id="Vector" d="M182 14.24C181.01 15.08 179.73 15.58 178.33 15.58C175.21 15.58 172.68 13.08 172.68 9.99C172.68 6.91 175.21 4.41 178.33 4.41C179.73 4.41 181.01 4.91 182 5.75C182.98 4.91 184.26 4.41 185.66 4.41C188.78 4.41 191.31 6.91 191.31 9.99C191.31 13.08 188.78 15.58 185.66 15.58C184.26 15.58 182.98 15.08 182 14.24Z" fill="#ED0006" fill-opacity="1.000000" fill-rule="evenodd"/>
		<path id="Vector" d="M182 14.24C183.21 13.22 183.98 11.7 183.98 9.99C183.98 8.29 183.21 6.77 182 5.75C182.98 4.91 184.26 4.41 185.66 4.41C188.78 4.41 191.31 6.91 191.31 9.99C191.31 13.08 188.78 15.58 185.66 15.58C184.26 15.58 182.98 15.08 182 14.24Z" fill="#F9A000" fill-opacity="1.000000" fill-rule="evenodd"/>
		<path id="Vector" d="M182 14.24C183.21 13.22 183.98 11.7 183.98 10C183.98 8.29 183.21 6.77 182 5.75C180.78 6.77 180.01 8.29 180.01 10C180.01 11.7 180.78 13.22 182 14.24Z" fill="#FF5E00" fill-opacity="1.000000" fill-rule="evenodd"/>
	</g>
	<rect id="Discover-43f93fef" rx="0.000000" width="31.000000" height="19.000000" transform="translate(208.000000 0.500000)" fill="#FFFFFF" fill-opacity="0"/>
	<g clip-path="url(#clip1014_8349)">
		<mask id="mask1014_8351" mask-type="alpha" maskUnits="userSpaceOnUse" x="207.500000" y="0.000000" width="32.000000" height="20.000000">
			<path id="Vector" d="M209.5 0L237.5 0C238.6 0 239.5 0.89 239.5 2L239.5 18C239.5 19.1 238.6 20 237.5 20L209.5 20C208.39 20 207.5 19.1 207.5 18L207.5 2C207.5 0.89 208.39 0 209.5 0Z" fill="#000000" fill-opacity="1.000000" fill-rule="evenodd"/>
		</mask>
		<g mask="url(#mask1014_8351)">
			<path id="Vector" d="M209.5 0L237.5 0C238.6 0 239.5 0.89 239.5 2L239.5 18C239.5 19.1 238.6 20 237.5 20L209.5 20C208.39 20 207.5 19.1 207.5 18L207.5 2C207.5 0.89 208.39 0 209.5 0Z" fill="#FFFFFF" fill-opacity="1.000000" fill-rule="evenodd"/>
			<path id="Vector" d="M233.67 8C234.54 8 235.02 8.41 235.02 9.17C235.06 9.75 234.67 10.24 234.14 10.33L235.32 11.99L234.41 11.99L233.4 10.38L233.32 10.38L233.32 11.99L232.58 11.99L232.58 8L233.67 8ZM233.32 9.84L233.53 9.84C234.01 9.84 234.23 9.62 234.23 9.21C234.23 8.85 234.01 8.63 233.53 8.63L233.32 8.63L233.32 9.84ZM230.01 11.99L232.1 11.99L232.1 11.32L230.75 11.32L230.75 10.24L232.05 10.24L232.05 9.57L230.75 9.57L230.75 8.68L232.1 8.68L232.1 8L230.01 8L230.01 11.99ZM227.83 10.69L226.83 8L226.04 8L227.65 12.08L228.05 12.08L229.66 8L228.87 8L227.83 10.69ZM218.99 10.02C218.99 11.14 219.86 12.08 220.95 12.08C221.3 12.08 221.6 11.99 221.91 11.85L221.91 10.96C221.69 11.23 221.38 11.41 221.03 11.41C220.34 11.41 219.77 10.87 219.77 10.15L219.77 10.06C219.73 9.35 220.29 8.72 220.99 8.68C221.34 8.68 221.69 8.85 221.91 9.12L221.91 8.23C221.64 8.05 221.3 8 220.99 8C219.86 7.91 218.99 8.85 218.99 10.02ZM217.64 9.53C217.2 9.35 217.07 9.26 217.07 9.03C217.11 8.77 217.33 8.54 217.59 8.59C217.81 8.59 218.03 8.72 218.2 8.9L218.6 8.36C218.29 8.09 217.9 7.91 217.51 7.91C216.9 7.87 216.37 8.36 216.33 8.99L216.33 9.03C216.33 9.57 216.55 9.88 217.25 10.11C217.42 10.15 217.59 10.24 217.77 10.33C217.9 10.42 217.99 10.56 217.99 10.74C217.99 11.05 217.72 11.32 217.46 11.32L217.42 11.32C217.07 11.32 216.77 11.09 216.64 10.78L216.16 11.27C216.42 11.77 216.94 12.03 217.46 12.03C218.16 12.08 218.73 11.54 218.77 10.83L218.77 10.69C218.73 10.15 218.51 9.88 217.64 9.53ZM215.11 11.99L215.85 11.99L215.85 8L215.11 8L215.11 11.99ZM211.67 8L212.76 8L212.98 8C214.02 8.05 214.85 8.94 214.81 10.02C214.81 10.6 214.54 11.14 214.11 11.54C213.72 11.85 213.24 12.03 212.76 11.99L211.67 11.99L211.67 8ZM212.63 11.32C212.98 11.36 213.37 11.23 213.63 11C213.89 10.73 214.02 10.38 214.02 9.97C214.02 9.62 213.89 9.26 213.63 8.99C213.37 8.76 212.98 8.63 212.63 8.67L212.41 8.67L212.41 11.32L212.63 11.32Z" fill="#000000" fill-opacity="1.000000" fill-rule="evenodd"/>
			<path id="Vector" d="M224.13 7.91C223.04 7.91 222.12 8.81 222.12 9.97C222.12 11.09 222.99 12.03 224.13 12.08C225.26 12.12 226.13 11.18 226.17 10.02C226.13 8.85 225.26 7.91 224.13 7.91Z" fill="#FD6020" fill-opacity="1.000000" fill-rule="evenodd"/>
			<path id="Vector" d="M221.5 20.5L239.35 15L239.35 19C239.35 19.82 238.67 20.5 237.85 20.5L221.5 20.5Z" fill="#FD6020" fill-opacity="1.000000" fill-rule="nonzero"/>
		</g>
		<path id="Vector" d="M237.5 0.25C238.46 0.25 239.25 1.03 239.25 2L239.25 18C239.25 18.96 238.46 19.75 237.5 19.75L209.5 19.75C208.53 19.75 207.75 18.96 207.75 18L207.75 2C207.75 1.03 208.53 0.25 209.5 0.25L237.5 0.25Z" stroke="#000000" stroke-opacity="1.000000" stroke-width="0.500000"/>
	</g>
	<rect id="Visa-9531d60e" rx="0.000000" width="31.000000" height="19.000000" transform="translate(249.500000 0.500000)" fill="#FFFFFF" fill-opacity="0"/>
	<g clip-path="url(#clip1014_8359)">
		<path id="Vector" d="M251 0.25L279 0.25C279.96 0.25 280.75 1.03 280.75 2L280.75 18C280.75 18.96 279.96 19.75 279 19.75L251 19.75C250.03 19.75 249.25 18.96 249.25 18L249.25 2C249.25 1.03 250.03 0.25 251 0.25Z" fill="#FFFFFF" fill-opacity="1.000000" fill-rule="evenodd"/>
		<path id="Vector" d="M279 0.25C279.96 0.25 280.75 1.03 280.75 2L280.75 18C280.75 18.96 279.96 19.75 279 19.75L251 19.75C250.03 19.75 249.25 18.96 249.25 18L249.25 2C249.25 1.03 250.03 0.25 251 0.25L279 0.25Z" stroke="#000000" stroke-opacity="1.000000" stroke-width="0.500000"/>
		<path id="Vector" d="M260.04 13.2L258.32 13.2L257.03 8.15C256.97 7.92 256.84 7.71 256.65 7.61C256.18 7.37 255.65 7.18 255.08 7.08L255.08 6.88L257.84 6.88C258.23 6.88 258.51 7.18 258.56 7.52L259.23 11.16L260.94 6.88L262.61 6.88L260.04 13.2ZM263.57 13.2L261.95 13.2L263.28 6.88L264.9 6.88L263.57 13.2ZM267 8.63C267.04 8.29 267.33 8.1 267.67 8.1C268.19 8.05 268.76 8.15 269.24 8.39L269.52 7.03C269.05 6.83 268.52 6.74 268.05 6.74C266.47 6.74 265.33 7.61 265.33 8.83C265.33 9.75 266.14 10.24 266.71 10.53C267.33 10.82 267.57 11.02 267.52 11.31C267.52 11.74 267.04 11.94 266.57 11.94C266 11.94 265.42 11.79 264.9 11.55L264.61 12.91C265.19 13.15 265.81 13.25 266.38 13.25C268.14 13.3 269.24 12.42 269.24 11.11C269.24 9.46 267 9.36 267 8.63ZM274.91 13.2L273.63 6.88L272.24 6.88C271.96 6.88 271.67 7.08 271.57 7.37L269.19 13.2L270.86 13.2L271.19 12.28L273.24 12.28L273.43 13.2L274.91 13.2ZM272.48 8.58L272.96 10.97L271.62 10.97L272.48 8.58Z" fill="#172B85" fill-opacity="1.000000" fill-rule="evenodd"/>
	</g>
</svg>
