<svg width="34.000000" height="34.000000" viewBox="0 0 34 34" fill="none" xmlns="http://www.w3.org/2000/svg" xmlns:xlink="http://www.w3.org/1999/xlink">
	<desc>
			Created with Pixso.
	</desc>
	<defs>
		<clipPath id="clip999_7936">
			<rect id="arrowhead-right-outline" rx="0.000000" width="32.583332" height="32.583332" transform="translate(0.708333 0.708333)" fill="white" fill-opacity="0"/>
		</clipPath>
	</defs>
	<rect id="arrowhead-right-outline" rx="0.000000" width="32.583332" height="32.583332" transform="translate(0.708333 0.708333)" fill="#FFFFFF" fill-opacity="0"/>
	<g clip-path="url(#clip999_7936)">
		<g opacity="0.000000">
			<path id="Vector" d="M0 34L0 0L34 0L34 34L0 34Z" fill="#FFFFFF" fill-opacity="1.000000" fill-rule="evenodd"/>
		</g>
		<path id="Vector" d="M26.6 16.1L19.83 7.6C19.71 7.46 19.57 7.34 19.4 7.25C19.24 7.16 19.06 7.1 18.87 7.08C18.69 7.06 18.5 7.08 18.32 7.13C18.14 7.18 17.98 7.27 17.83 7.39C17.69 7.51 17.56 7.65 17.48 7.81C17.39 7.98 17.33 8.16 17.31 8.34C17.29 8.53 17.31 8.72 17.36 8.9C17.41 9.08 17.5 9.24 17.62 9.39L23.67 16.99L17.32 24.6C17.2 24.75 17.11 24.91 17.06 25.09C17 25.27 16.98 25.45 17 25.64C17.02 25.82 17.07 26 17.16 26.17C17.24 26.33 17.36 26.48 17.51 26.6C17.76 26.81 18.08 26.92 18.41 26.91C18.62 26.91 18.83 26.87 19.01 26.78C19.2 26.69 19.37 26.56 19.5 26.4L26.59 17.9C26.8 17.65 26.91 17.33 26.92 17C26.92 16.68 26.81 16.36 26.6 16.1Z" fill="#FFFFFF" fill-opacity="1.000000" fill-rule="nonzero"/>
		<path id="Vector" d="M9.91 7.6C9.67 7.3 9.33 7.1 8.95 7.06C8.57 7.01 8.18 7.12 7.88 7.35C7.58 7.59 7.38 7.94 7.33 8.32C7.29 8.7 7.39 9.08 7.63 9.39L13.75 17L7.4 24.59C7.28 24.73 7.19 24.9 7.14 25.07C7.08 25.25 7.06 25.44 7.08 25.63C7.1 25.81 7.15 25.99 7.24 26.16C7.33 26.32 7.44 26.47 7.59 26.59C7.84 26.8 8.16 26.91 8.5 26.91C8.7 26.91 8.91 26.87 9.1 26.78C9.29 26.69 9.45 26.56 9.59 26.4L16.67 17.9C16.88 17.65 16.99 17.33 16.99 17C16.99 16.67 16.88 16.36 16.67 16.1L9.91 7.6Z" fill="#FFFFFF" fill-opacity="1.000000" fill-rule="nonzero"/>
	</g>
</svg>
