<svg width="50.000000" height="59.000000" viewBox="0 0 50 59" fill="none" xmlns="http://www.w3.org/2000/svg" xmlns:xlink="http://www.w3.org/1999/xlink">
	<desc>
			Created with Pixso.
	</desc>
	<defs>
		<clipPath id="clip1006_8094">
			<rect id="public 2" rx="0.000000" width="49.000000" height="58.000000" transform="translate(0.500000 0.500000)" fill="white" fill-opacity="0"/>
		</clipPath>
		<linearGradient x1="25.000000" y1="55.493645" x2="25.000000" y2="8.421143" id="paint_linear_1006_8097_0" gradientUnits="userSpaceOnUse">
			<stop stop-color="#DBA73E"/>
			<stop offset="0.160000" stop-color="#D89D3A"/>
			<stop offset="0.300000" stop-color="#A46B28"/>
			<stop offset="0.460000" stop-color="#8E5723"/>
			<stop offset="0.490000" stop-color="#F4F3B8"/>
			<stop offset="0.560000" stop-color="#F7ED9A"/>
			<stop offset="0.690000" stop-color="#D5B767"/>
			<stop offset="0.750000" stop-color="#A76F29"/>
			<stop offset="0.850000" stop-color="#D0AB5B"/>
			<stop offset="1.000000" stop-color="#E0C77D"/>
		</linearGradient>
		<linearGradient x1="0.185675" y1="29.478672" x2="46.157097" y2="29.478672" id="paint_linear_1006_8098_0" gradientUnits="userSpaceOnUse">
			<stop stop-color="#5E5F5F"/>
			<stop offset="0.050000" stop-color="#000002"/>
			<stop offset="0.130000" stop-color="#424242"/>
			<stop offset="0.210000" stop-color="#1B1B1B"/>
			<stop offset="0.490000" stop-color="#000002"/>
			<stop offset="0.790000" stop-color="#1B1B1B"/>
			<stop offset="0.870000" stop-color="#5E5F5F"/>
			<stop offset="0.940000" stop-color="#000002"/>
			<stop offset="1.000000" stop-color="#5E5F5F"/>
		</linearGradient>
		<linearGradient x1="8.292965" y1="56.102928" x2="33.757275" y2="-0.616385" id="paint_linear_1006_8099_0" gradientUnits="userSpaceOnUse">
			<stop stop-color="#482A0F"/>
			<stop offset="0.100000" stop-color="#A77129"/>
			<stop offset="0.150000" stop-color="#FFFFFF"/>
			<stop offset="0.220000" stop-color="#DA9E41"/>
			<stop offset="0.340000" stop-color="#8E5923"/>
			<stop offset="0.500000" stop-color="#D8A64D"/>
			<stop offset="0.660000" stop-color="#F5E380"/>
			<stop offset="0.720000" stop-color="#DAC164"/>
			<stop offset="0.770000" stop-color="#FFFFFF"/>
			<stop offset="0.830000" stop-color="#A0752B"/>
			<stop offset="1.000000" stop-color="#664219"/>
		</linearGradient>
		<linearGradient x1="-4.235635" y1="29.478413" x2="46.042938" y2="29.478413" id="paint_linear_1006_8100_0" gradientUnits="userSpaceOnUse">
			<stop stop-color="#868786"/>
			<stop offset="0.050000" stop-color="#3B3B3C"/>
			<stop offset="0.130000" stop-color="#706F70"/>
			<stop offset="0.210000" stop-color="#4F5050"/>
			<stop offset="0.490000" stop-color="#3B3B3C"/>
			<stop offset="0.790000" stop-color="#4F5050"/>
			<stop offset="0.870000" stop-color="#868786"/>
			<stop offset="0.940000" stop-color="#3B3B3C"/>
			<stop offset="1.000000" stop-color="#868786"/>
		</linearGradient>
		<linearGradient x1="24.999973" y1="52.646191" x2="24.999973" y2="6.331551" id="paint_linear_1006_8101_0" gradientUnits="userSpaceOnUse">
			<stop stop-color="#BA9555"/>
			<stop offset="0.120000" stop-color="#965824"/>
			<stop offset="0.400000" stop-color="#FCF6AC"/>
			<stop offset="0.670000" stop-color="#D3AC53"/>
			<stop offset="0.850000" stop-color="#BD882C"/>
			<stop offset="1.000000" stop-color="#A25D25"/>
		</linearGradient>
		<linearGradient x1="25.000076" y1="54.289654" x2="25.000076" y2="4.426510" id="paint_linear_1006_8112_0" gradientUnits="userSpaceOnUse">
			<stop stop-color="#DBA73E"/>
			<stop offset="0.160000" stop-color="#D89D3A"/>
			<stop offset="0.300000" stop-color="#A46B28"/>
			<stop offset="0.460000" stop-color="#8E5723"/>
			<stop offset="0.490000" stop-color="#F4F3B8"/>
			<stop offset="0.560000" stop-color="#F7ED9A"/>
			<stop offset="0.690000" stop-color="#D5B767"/>
			<stop offset="0.750000" stop-color="#A76F29"/>
			<stop offset="0.850000" stop-color="#D0AB5B"/>
			<stop offset="1.000000" stop-color="#E0C77D"/>
		</linearGradient>
		<linearGradient x1="10.635731" y1="51.562561" x2="32.107193" y2="3.732206" id="paint_linear_1006_8114_0" gradientUnits="userSpaceOnUse">
			<stop stop-color="#482A0F"/>
			<stop offset="0.100000" stop-color="#A77129"/>
			<stop offset="0.150000" stop-color="#FFFFFF"/>
			<stop offset="0.220000" stop-color="#DA9E41"/>
			<stop offset="0.340000" stop-color="#8E5923"/>
			<stop offset="0.500000" stop-color="#D8A64D"/>
			<stop offset="0.660000" stop-color="#F5E380"/>
			<stop offset="0.720000" stop-color="#DAC164"/>
			<stop offset="0.770000" stop-color="#FFFFFF"/>
			<stop offset="0.830000" stop-color="#A0752B"/>
			<stop offset="1.000000" stop-color="#664219"/>
		</linearGradient>
		<linearGradient x1="8.571449" y1="29.287415" x2="41.578594" y2="29.287415" id="paint_linear_1006_8115_0" gradientUnits="userSpaceOnUse">
			<stop stop-color="#20679D"/>
			<stop offset="0.050000" stop-color="#113560"/>
			<stop offset="0.130000" stop-color="#00558A"/>
			<stop offset="0.190000" stop-color="#134170"/>
			<stop offset="0.490000" stop-color="#113560"/>
			<stop offset="0.720000" stop-color="#134170"/>
			<stop offset="0.830000" stop-color="#20679D"/>
			<stop offset="0.930000" stop-color="#113560"/>
			<stop offset="1.000000" stop-color="#20679D"/>
		</linearGradient>
		<linearGradient x1="-69.257561" y1="-68.788231" x2="16.192871" y2="32.191414" id="paint_linear_1006_8116_0" gradientUnits="userSpaceOnUse">
			<stop stop-color="#FCF6B2"/>
			<stop offset="0.220000" stop-color="#DA9E41"/>
			<stop offset="0.380000" stop-color="#E8C576"/>
			<stop offset="0.500000" stop-color="#D8A64D"/>
			<stop offset="0.660000" stop-color="#F5E380"/>
			<stop offset="0.720000" stop-color="#DAC164"/>
			<stop offset="1.000000" stop-color="#FCF6B2"/>
		</linearGradient>
		<linearGradient x1="12.364286" y1="14.972927" x2="36.907139" y2="32.835835" id="paint_linear_1006_8117_0" gradientUnits="userSpaceOnUse">
			<stop stop-color="#FCF6B2"/>
			<stop offset="0.220000" stop-color="#DA9E41"/>
			<stop offset="0.380000" stop-color="#E8C576"/>
			<stop offset="0.500000" stop-color="#D8A64D"/>
			<stop offset="0.660000" stop-color="#F5E380"/>
			<stop offset="0.720000" stop-color="#DAC164"/>
			<stop offset="1.000000" stop-color="#FCF6B2"/>
		</linearGradient>
	</defs>
	<rect id="public 2" rx="0.000000" width="49.000000" height="58.000000" transform="translate(0.500000 0.500000)" fill="#FFFFFF" fill-opacity="0"/>
	<g clip-path="url(#clip1006_8094)">
		<path id="Vector" d="M28.52 53.56C28.33 53.63 28.15 53.67 28 53.68C28.15 53.66 28.33 53.66 28.53 53.7C29.06 53.73 30.58 55.18 30.64 55.48C30.33 55.29 30.24 55.02 29.7 54.99C29.35 54.97 28.86 54.97 28.5 54.95C27.45 54.89 27.7 53.99 26.95 53.92L26.92 53.83L27.3 53.85C27.41 53.84 27.64 53.73 28 53.69C27.65 53.73 27.39 53.67 27.28 53.69L26.92 53.8L26.92 53.7C27.63 53.47 27.18 52.65 28.19 52.35C28.54 52.25 29.01 52.14 29.35 52.04C29.87 51.89 29.89 51.61 30.15 51.35C30.16 51.66 29.01 53.41 28.5 53.56L28.52 53.56ZM25 53.38C25.32 53.38 25.58 53.63 25.58 53.95C25.58 54.27 25.32 54.53 25 54.53C24.68 54.53 24.42 54.27 24.42 53.95C24.42 53.63 24.68 53.38 25 53.38ZM32.95 10.7C33.56 10.91 34.02 10.75 34.18 10.76L34.55 10.85L34.55 10.76C33.82 10.56 34.22 9.72 33.2 9.48C32.85 9.39 32.37 9.31 32.02 9.22C31.5 9.1 31.46 8.81 31.19 8.58C31.19 8.88 32.43 10.58 32.95 10.71L32.95 10.7ZM17.04 10.7C16.43 10.92 15.97 10.76 15.81 10.77L15.45 10.86L15.45 10.76C16.17 10.56 15.77 9.72 16.79 9.48C17.14 9.39 17.62 9.31 17.97 9.22C18.5 9.1 18.53 8.81 18.8 8.57C18.8 8.88 17.56 10.58 17.04 10.7ZM18.67 53.1C18.87 53.1 19.05 53.12 19.21 53.16C19.06 53.12 18.89 53.06 18.71 52.97C18.22 52.75 17.3 50.87 17.35 50.57C17.57 50.85 17.57 51.13 18.06 51.35C18.39 51.49 18.85 51.66 19.18 51.8C20.14 52.22 19.6 52.97 20.27 53.29L20.26 53.39L19.92 53.24C19.81 53.21 19.54 53.24 19.21 53.16C19.54 53.24 19.77 53.39 19.87 53.41L20.25 53.43L20.22 53.52C19.47 53.49 19.6 54.42 18.56 54.35C18.2 54.33 17.72 54.26 17.35 54.24C16.82 54.21 16.7 54.46 16.36 54.61C16.46 54.32 18.15 53.07 18.68 53.1L18.67 53.1ZM15.97 52.14C15.45 52.04 13.61 53.07 13.47 53.34C13.82 53.24 13.97 53 14.5 53.1C14.86 53.17 15.32 53.29 15.68 53.36C16.72 53.56 16.7 52.62 17.44 52.74L17.48 52.66L17.11 52.58C17.01 52.55 16.82 52.39 16.5 52.27C16.82 52.38 17.07 52.39 17.17 52.43L17.5 52.62L17.52 52.53C16.89 52.13 17.52 51.44 16.62 50.91C16.31 50.72 15.88 50.5 15.57 50.32C15.11 50.05 15.16 49.77 14.97 49.45C14.89 49.74 15.57 51.73 16.02 52C16.18 52.12 16.34 52.2 16.49 52.26C16.34 52.2 16.17 52.16 15.97 52.14ZM13.4 50.85C13.6 50.89 13.77 50.96 13.9 51.03C13.1 50.6 12.53 48.58 12.75 48.07C12.9 48.4 12.82 48.67 13.24 48.99C13.52 49.21 13.92 49.49 14.21 49.71C15.04 50.35 14.32 50.96 14.89 51.43L14.86 51.52L14.57 51.28C14.47 51.23 14.21 51.19 13.9 51.03C14.21 51.19 14.39 51.38 14.48 51.43L14.84 51.54L14.79 51.62C14.07 51.41 13.97 52.34 12.97 52.01C12.62 51.9 12.17 51.72 11.83 51.61C11.32 51.44 11.14 51.66 10.78 51.72C10.95 51.47 12.9 50.67 13.4 50.84L13.4 50.85ZM11.02 49.25C10.54 49.02 8.5 49.57 8.3 49.8C8.67 49.79 8.87 49.59 9.36 49.82C9.69 49.98 10.11 50.21 10.44 50.36C11.39 50.81 11.61 49.9 12.3 50.2L12.36 50.13L12.02 49.97C11.93 49.91 11.77 49.69 11.5 49.5C11.77 49.69 12.03 49.77 12.12 49.83L12.38 50.1L12.43 50.01C11.92 49.47 12.71 48.97 11.97 48.22C11.71 47.97 11.35 47.65 11.1 47.39C10.71 47.01 10.83 46.76 10.73 46.41C10.57 46.67 10.73 48.76 11.1 49.14C11.23 49.29 11.37 49.4 11.49 49.5C11.36 49.4 11.2 49.32 11.02 49.26L11.02 49.25ZM8.85 47.36C9.03 47.46 9.17 47.56 9.3 47.67C9.18 47.56 9.06 47.43 8.95 47.26C8.63 46.84 8.75 44.75 8.93 44.51C8.99 44.86 8.84 45.11 9.17 45.53C9.39 45.81 9.71 46.17 9.93 46.47C10.57 47.29 9.72 47.7 10.16 48.3L10.1 48.38L9.87 48.08C9.8 48.01 9.55 47.9 9.3 47.67C9.55 47.9 9.67 48.14 9.75 48.21L10.07 48.41L10 48.47C9.36 48.09 9.02 48.96 8.14 48.4C7.83 48.2 7.44 47.92 7.14 47.73C6.69 47.44 6.45 47.61 6.09 47.58C6.32 47.37 8.4 47.08 8.85 47.36ZM6.94 45.23C7.11 45.34 7.24 45.47 7.35 45.58C7.25 45.46 7.14 45.31 7.06 45.13C6.8 44.68 7.17 42.62 7.39 42.4C7.4 42.76 7.22 42.98 7.5 43.44C7.68 43.75 7.94 44.15 8.13 44.46C8.66 45.36 7.77 45.66 8.13 46.31L8.07 46.38L7.88 46.05C7.81 45.97 7.58 45.84 7.36 45.57C7.58 45.83 7.67 46.08 7.75 46.16L8.04 46.4L7.96 46.46C7.37 46 6.92 46.82 6.12 46.15C5.84 45.92 5.49 45.59 5.21 45.36C4.8 45.01 4.55 45.15 4.19 45.08C4.44 44.91 6.55 44.89 6.96 45.22L6.94 45.23ZM5.32 42.87C5.47 43 5.59 43.14 5.67 43.27C5.86 43.56 6.07 43.72 6.13 43.81L6.28 44.16L6.36 44.1C6.08 43.41 7.01 43.23 6.6 42.27C6.45 41.93 6.24 41.5 6.1 41.17C5.88 40.69 6.1 40.49 6.12 40.13C5.88 40.31 5.25 42.31 5.45 42.8C5.52 42.99 5.6 43.15 5.68 43.28C5.87 43.57 5.93 43.82 6 43.92L6.25 44.18L6.17 44.23C5.64 43.7 5.1 44.46 4.38 43.7C4.13 43.43 3.82 43.07 3.58 42.8C3.22 42.4 2.94 42.51 2.6 42.39C2.87 42.25 4.97 42.49 5.33 42.87L5.32 42.87ZM4.02 40.32C4.44 40.81 4.47 41.29 4.54 41.44L4.76 41.74L4.67 41.78C4.21 41.18 3.57 41.88 2.96 41.03C2.75 40.74 2.49 40.32 2.28 40.03C1.97 39.59 1.69 39.67 1.36 39.51C1.64 39.4 3.69 39.9 4.01 40.32L4.02 40.32ZM4.14 40.26C4 39.76 4.88 37.85 5.15 37.7C5.07 38.05 4.85 38.22 5 38.74C5.1 39.08 5.25 39.54 5.35 39.89C5.64 40.89 4.69 40.95 4.88 41.68L4.8 41.73L4.69 41.37C4.63 41.22 4.26 40.9 4.14 40.27L4.14 40.26ZM3.05 37.64C2.79 37.18 0.82 36.43 0.52 36.5C0.82 36.7 1.11 36.66 1.37 37.13C1.54 37.45 1.75 37.88 1.92 38.2C2.42 39.12 3.14 38.51 3.51 39.16L3.6 39.13L3.42 38.81C3.39 38.71 3.39 38.45 3.28 38.12C3.39 38.45 3.55 38.65 3.59 38.76L3.64 39.13L3.73 39.08C3.64 38.34 4.58 38.4 4.42 37.37C4.37 37.02 4.27 36.54 4.22 36.19C4.13 35.66 4.38 35.52 4.5 35.18C4.22 35.3 3.1 37.07 3.18 37.59C3.19 37.79 3.23 37.97 3.28 38.11C3.23 37.97 3.16 37.8 3.05 37.64ZM2.42 34.86C2.51 35.03 2.56 35.2 2.6 35.36C2.57 35.2 2.55 35.03 2.56 34.83C2.55 34.3 3.88 32.68 4.17 32.6C4.01 32.92 3.75 33.03 3.76 33.56C3.77 33.92 3.81 34.4 3.82 34.76C3.85 35.8 2.92 35.63 2.91 36.37L2.82 36.4L2.82 36.02C2.79 35.92 2.65 35.69 2.59 35.36C2.66 35.7 2.62 35.95 2.64 36.06L2.77 36.41L2.68 36.41C2.39 35.73 1.6 36.24 1.22 35.27C1.09 34.93 0.94 34.47 0.81 34.14C0.62 33.64 0.33 33.64 0.05 33.4C0.36 33.37 2.22 34.36 2.41 34.85L2.42 34.86ZM2.15 32.02C2.02 31.51 0.3 30.29 0 30.29C0.24 30.56 0.52 30.59 0.65 31.11C0.74 31.46 0.83 31.93 0.92 32.28C1.17 33.29 2.02 32.88 2.22 33.6L2.32 33.6L2.23 33.24C2.22 33.14 2.3 32.88 2.27 32.54C2.25 32.38 2.27 32.21 2.3 32.01C2.36 31.48 3.89 30.04 4.19 30C3.99 30.29 3.71 30.37 3.65 30.9C3.62 31.26 3.6 31.74 3.56 32.1C3.45 33.14 2.55 32.85 2.46 33.6L2.37 33.61L2.41 33.24C2.41 33.14 2.3 32.89 2.27 32.55C2.26 32.39 2.23 32.21 2.17 32.02L2.15 32.02ZM2.25 29.16C2.18 28.64 0.63 27.22 0.32 27.18C0.53 27.48 0.81 27.55 0.87 28.08C0.92 28.43 0.94 28.91 0.99 29.27C1.11 30.3 2 30 2.12 30.74L2.21 30.76L2.17 30.39C2.17 30.28 2.27 30.04 2.3 29.69C2.3 29.54 2.33 29.36 2.39 29.17C2.52 28.66 4.22 27.41 4.52 27.41C4.29 27.67 4 27.72 3.88 28.24C3.8 28.59 3.72 29.06 3.64 29.42C3.4 30.43 2.55 30.04 2.35 30.76L2.26 30.76L2.35 30.4C2.35 30.29 2.27 30.04 2.3 29.7C2.3 29.54 2.3 29.37 2.25 29.17L2.25 29.16ZM2.7 26.34C2.7 25.82 1.35 24.22 1.05 24.13C1.22 24.45 1.48 24.56 1.47 25.1C1.47 25.45 1.44 25.93 1.44 26.29C1.43 27.33 2.35 27.15 2.37 27.89L2.46 27.92L2.46 27.55C2.48 27.44 2.61 27.21 2.67 26.87C2.7 26.72 2.75 26.55 2.84 26.37C3.02 25.88 4.87 24.86 5.17 24.88C4.9 25.12 4.62 25.12 4.43 25.63C4.31 25.97 4.17 26.42 4.04 26.76C3.67 27.74 2.87 27.24 2.6 27.93L2.5 27.93L2.63 27.57C2.65 27.46 2.61 27.21 2.67 26.87C2.7 26.71 2.72 26.53 2.7 26.34L2.7 26.34ZM3.51 23.6C3.5 23.8 3.47 23.98 3.42 24.13C3.31 24.45 3.32 24.71 3.29 24.82L3.11 25.15L3.2 25.17C3.57 24.52 4.3 25.12 4.78 24.19C4.95 23.87 5.14 23.43 5.31 23.11C5.56 22.64 5.85 22.67 6.14 22.47C5.85 22.4 3.89 23.18 3.64 23.65C3.53 23.82 3.46 23.98 3.41 24.13C3.3 24.46 3.14 24.67 3.12 24.77L3.07 25.14L2.98 25.1C3.06 24.36 2.12 24.43 2.26 23.4C2.31 23.04 2.4 22.57 2.45 22.21C2.52 21.68 2.27 21.55 2.14 21.21C2.43 21.32 3.57 23.08 3.51 23.6ZM4.66 20.99C4.62 21.19 4.57 21.36 4.5 21.5C4.36 21.81 4.33 22.07 4.29 22.17L4.07 22.48L4.17 22.5C4.61 21.9 5.26 22.58 5.86 21.73C6.07 21.43 6.32 21.02 6.52 20.73C6.83 20.29 7.11 20.35 7.43 20.19C7.14 20.08 5.1 20.62 4.8 21.04C4.67 21.2 4.57 21.35 4.51 21.5C4.37 21.81 4.18 22 4.14 22.1L4.05 22.46L3.96 22.41C4.13 21.68 3.19 21.64 3.46 20.63C3.55 20.28 3.7 19.82 3.8 19.48C3.94 18.96 3.7 18.79 3.62 18.45C3.89 18.59 4.8 20.49 4.67 21L4.66 20.99ZM6.13 18.54C6.33 18.05 5.66 16.07 5.42 15.88C5.45 16.24 5.67 16.43 5.46 16.93C5.32 17.26 5.12 17.69 4.98 18.03C4.59 18.99 5.52 19.16 5.25 19.85L5.33 19.91L5.47 19.56C5.53 19.47 5.74 19.31 5.92 19.02C6.01 18.88 6.12 18.74 6.27 18.61C6.62 18.22 8.72 17.94 8.99 18.08C8.64 18.2 8.37 18.11 8.02 18.5C7.77 18.77 7.47 19.15 7.23 19.42C6.52 20.19 5.97 19.44 5.45 19.98L5.37 19.93L5.62 19.66C5.67 19.56 5.73 19.31 5.92 19.02C6 18.88 6.08 18.73 6.14 18.53L6.13 18.54ZM7.9 16.29C8.16 15.82 7.75 13.77 7.53 13.56C7.52 13.92 7.71 14.14 7.44 14.61C7.26 14.92 7 15.32 6.82 15.63C6.31 16.54 7.21 16.82 6.86 17.48L6.93 17.55L7.12 17.23C7.19 17.14 7.41 17.01 7.63 16.74C7.41 17.01 7.32 17.26 7.25 17.33L6.97 17.57L7.05 17.62C7.63 17.15 8.08 17.97 8.88 17.29C9.15 17.06 9.5 16.72 9.77 16.48C10.18 16.13 10.44 16.26 10.79 16.19C10.53 16.02 8.42 16.02 8.02 16.37C7.86 16.48 7.73 16.61 7.63 16.73C7.73 16.61 7.83 16.46 7.91 16.28L7.9 16.29ZM9.94 14.27C10.26 13.85 10.11 11.76 9.92 11.53C9.87 11.88 10.02 12.12 9.69 12.55C9.48 12.84 9.17 13.21 8.95 13.49C8.32 14.33 9.18 14.72 8.75 15.34L8.81 15.41L9.03 15.12C9.11 15.04 9.35 14.93 9.6 14.7C9.35 14.93 9.23 15.17 9.15 15.24L8.84 15.45L8.91 15.51C9.55 15.12 9.89 15.99 10.77 15.41C11.07 15.21 11.47 14.92 11.77 14.72C12.22 14.42 12.45 14.59 12.81 14.55C12.58 14.34 10.48 14.1 10.04 14.39C9.86 14.48 9.72 14.59 9.6 14.7C9.72 14.59 9.83 14.46 9.94 14.28L9.94 14.27ZM12.22 12.53C12.59 12.15 12.71 10.06 12.55 9.8C12.45 10.14 12.57 10.4 12.2 10.79C11.95 11.04 11.59 11.37 11.34 11.63C10.61 12.38 11.41 12.88 10.91 13.43L10.96 13.51L11.22 13.24C11.3 13.18 11.56 13.1 11.84 12.89C11.97 12.8 12.12 12.71 12.31 12.64C12.79 12.4 14.83 12.91 15.04 13.15C14.67 13.13 14.46 12.94 13.98 13.18C13.66 13.35 13.24 13.58 12.91 13.74C11.97 14.21 11.73 13.3 11.05 13.62L10.99 13.54L11.32 13.38C11.41 13.32 11.56 13.1 11.84 12.9C11.97 12.81 12.1 12.69 12.22 12.53ZM14.71 11.09C15.12 10.76 15.5 8.7 15.37 8.42C15.23 8.76 15.32 9.03 14.9 9.37C14.62 9.59 14.23 9.87 13.95 10.09C13.12 10.75 13.86 11.34 13.29 11.82L13.32 11.91L13.62 11.67C13.71 11.62 13.97 11.58 14.27 11.41C13.97 11.58 13.8 11.77 13.7 11.83L13.35 11.95L13.4 12.03C14.12 11.8 14.24 12.73 15.23 12.39C15.57 12.27 16.02 12.08 16.36 11.97C16.87 11.79 17.05 12.01 17.42 12.07C17.25 11.82 15.28 11.06 14.78 11.23C14.58 11.28 14.42 11.35 14.28 11.43C14.42 11.35 14.57 11.25 14.71 11.11L14.71 11.09ZM21.46 53.7C20.93 53.73 19.41 55.18 19.35 55.48C19.66 55.29 19.75 55.02 20.29 54.99C20.64 54.97 21.13 54.97 21.5 54.95C22.55 54.89 22.3 53.99 23.05 53.92L23.07 53.83L22.69 53.85C22.58 53.84 22.35 53.73 22 53.69C22.34 53.73 22.6 53.67 22.71 53.69L23.07 53.8L23.07 53.7C22.35 53.47 22.8 52.65 21.8 52.35C21.45 52.25 20.97 52.14 20.63 52.04C20.11 51.89 20.09 51.61 19.83 51.35C19.82 51.66 20.97 53.41 21.48 53.56C21.67 53.64 21.85 53.68 22 53.7C21.85 53.68 21.67 53.68 21.47 53.71L21.46 53.7ZM31.32 53.09C31.12 53.09 30.95 53.11 30.8 53.14C30.95 53.11 31.12 53.05 31.29 52.95C31.77 52.74 32.7 50.86 32.64 50.56C32.42 50.84 32.43 51.13 31.94 51.34C31.61 51.48 31.15 51.65 30.82 51.79C29.85 52.21 30.4 52.97 29.72 53.29L29.74 53.38L30.08 53.23C30.19 53.2 30.45 53.23 30.78 53.15C30.45 53.23 30.23 53.38 30.12 53.4L29.75 53.42L29.77 53.51C30.52 53.48 30.39 54.41 31.44 54.34C31.8 54.32 32.28 54.26 32.64 54.23C33.18 54.2 33.3 54.45 33.64 54.6C33.54 54.31 31.85 53.06 31.32 53.09L31.32 53.09ZM34.03 52.12C34.55 52.03 36.39 53.06 36.52 53.34C36.18 53.23 36.02 52.99 35.5 53.09C35.14 53.17 34.67 53.29 34.32 53.35C33.29 53.55 33.3 52.61 32.56 52.73L32.52 52.65L32.89 52.58C32.99 52.54 33.18 52.38 33.5 52.26C33.18 52.37 32.92 52.38 32.82 52.42L32.5 52.61L32.47 52.52C33.11 52.12 32.47 51.44 33.37 50.9C33.69 50.71 34.12 50.5 34.42 50.31C34.89 50.04 34.84 49.76 35.02 49.45C35.11 49.74 34.44 51.72 33.98 52C33.82 52.12 33.66 52.2 33.51 52.25C33.66 52.2 33.83 52.15 34.03 52.13L34.03 52.12ZM36.6 50.84C36.39 50.88 36.23 50.95 36.1 51.02C36.24 50.94 36.38 50.84 36.53 50.71C36.95 50.38 37.37 48.33 37.25 48.05C37.1 48.38 37.18 48.65 36.76 48.99C36.47 49.21 36.07 49.48 35.79 49.7C34.96 50.35 35.68 50.95 35.1 51.42L35.14 51.51L35.43 51.27C35.52 51.23 35.79 51.18 36.1 51.02C35.79 51.18 35.61 51.37 35.52 51.42L35.16 51.54L35.21 51.61C35.93 51.4 36.03 52.33 37.03 52C37.37 51.89 37.82 51.71 38.17 51.6C38.68 51.43 38.86 51.65 39.22 51.71C39.05 51.46 37.1 50.67 36.59 50.83L36.6 50.84ZM38.98 49.23C39.46 49.01 41.5 49.55 41.7 49.79C41.33 49.77 41.12 49.57 40.64 49.81C40.31 49.96 39.89 50.19 39.56 50.35C38.61 50.79 38.39 49.89 37.7 50.19L37.64 50.12L37.98 49.96C38.07 49.9 38.22 49.69 38.51 49.49C38.22 49.69 37.97 49.76 37.88 49.82L37.62 50.09L37.57 50.01C38.08 49.46 37.29 48.96 38.03 48.21C38.29 47.96 38.64 47.64 38.9 47.39C39.28 47.01 39.17 46.75 39.27 46.4C39.42 46.66 39.27 48.75 38.89 49.13C38.77 49.28 38.63 49.4 38.5 49.49C38.63 49.4 38.79 49.31 38.98 49.24L38.98 49.23ZM41.14 47.35C40.97 47.44 40.82 47.55 40.7 47.66C40.82 47.55 40.94 47.41 41.05 47.24C41.37 46.83 41.25 44.74 41.07 44.5C41.01 44.85 41.16 45.1 40.83 45.52C40.61 45.8 40.3 46.16 40.07 46.45C39.43 47.28 40.29 47.68 39.85 48.29L39.9 48.36L40.13 48.07C40.21 48 40.45 47.89 40.71 47.66C40.45 47.89 40.33 48.12 40.25 48.19L39.93 48.39L40 48.46C40.64 48.07 40.98 48.94 41.87 48.38C42.17 48.19 42.57 47.91 42.87 47.71C43.32 47.42 43.55 47.59 43.92 47.56C43.69 47.36 41.6 47.07 41.15 47.35L41.14 47.35ZM43.05 45.21C43.46 44.88 45.57 44.9 45.82 45.08C45.47 45.15 45.22 45.01 44.8 45.36C44.52 45.59 44.17 45.92 43.89 46.15C43.09 46.82 42.64 46 42.06 46.46L41.98 46.4L42.27 46.16C42.35 46.08 42.44 45.83 42.66 45.57C42.76 45.45 42.86 45.3 42.95 45.13C43.21 44.67 42.84 42.61 42.62 42.39C42.6 42.75 42.78 42.97 42.51 43.44C42.32 43.75 42.06 44.15 41.87 44.46C41.35 45.36 42.24 45.66 41.87 46.31L41.94 46.38L42.12 46.05C42.2 45.97 42.42 45.83 42.64 45.57C42.75 45.45 42.87 45.33 43.05 45.22L43.05 45.21ZM44.67 42.85C44.52 42.99 44.41 43.12 44.32 43.26C44.14 43.55 43.92 43.7 43.87 43.79L43.72 44.14L43.64 44.09C43.92 43.39 42.99 43.21 43.4 42.25C43.55 41.92 43.76 41.49 43.9 41.16C44.12 40.67 43.91 40.47 43.87 40.11C44.12 40.3 44.75 42.29 44.55 42.78C44.48 42.97 44.4 43.13 44.32 43.26C44.12 43.55 44.07 43.81 44 43.89L43.75 44.17L43.83 44.21C44.36 43.68 44.9 44.45 45.62 43.68C45.87 43.42 46.17 43.05 46.42 42.78C46.78 42.39 47.05 42.49 47.39 42.38C47.12 42.24 45.03 42.48 44.67 42.86L44.67 42.85ZM45.98 40.31C45.85 40.46 45.75 40.61 45.69 40.76C45.54 41.07 45.35 41.25 45.3 41.35L45.2 41.71L45.12 41.66C45.3 40.94 44.36 40.88 44.64 39.87C44.75 39.52 44.9 39.07 45 38.72C45.15 38.21 44.92 38.04 44.85 37.68C45.11 37.84 45.99 39.74 45.85 40.25C45.82 40.44 45.75 40.61 45.69 40.76C45.54 41.07 45.51 41.32 45.46 41.42L45.24 41.73L45.33 41.76C45.79 41.17 46.42 41.86 47.04 41.01C47.25 40.72 47.51 40.31 47.72 40.02C48.03 39.58 48.31 39.66 48.64 39.5C48.35 39.38 46.3 39.89 45.99 40.31L45.98 40.31ZM46.95 37.63C46.84 37.8 46.77 37.95 46.72 38.1C46.61 38.43 46.45 38.63 46.41 38.74L46.35 39.11L46.27 39.06C46.36 38.32 45.42 38.38 45.57 37.35C45.63 37 45.73 36.52 45.78 36.17C45.87 35.64 45.62 35.49 45.5 35.15C45.78 35.27 46.89 37.05 46.82 37.57C46.8 37.77 46.77 37.94 46.72 38.09C46.61 38.42 46.61 38.68 46.57 38.79L46.39 39.11L46.49 39.13C46.87 38.49 47.58 39.09 48.08 38.18C48.25 37.86 48.46 37.43 48.63 37.11C48.89 36.63 49.17 36.67 49.47 36.47C49.17 36.4 47.2 37.15 46.95 37.61L46.95 37.63ZM47.58 34.84C47.49 35.02 47.44 35.19 47.4 35.35C47.43 35.19 47.45 35.01 47.44 34.81C47.45 34.29 46.12 32.67 45.82 32.58C45.99 32.9 46.25 33.02 46.24 33.55C46.23 33.91 46.19 34.38 46.18 34.74C46.15 35.78 47.08 35.61 47.09 36.36L47.18 36.39L47.18 36.01C47.21 35.9 47.35 35.68 47.41 35.35C47.34 35.68 47.38 35.94 47.36 36.05L47.22 36.39L47.32 36.39C47.61 35.71 48.39 36.22 48.78 35.25C48.91 34.91 49.06 34.46 49.19 34.13C49.38 33.62 49.67 33.62 49.95 33.39C49.64 33.35 47.78 34.35 47.59 34.84L47.58 34.84ZM47.85 32C47.98 31.49 49.7 30.28 50.01 30.27C49.77 30.54 49.48 30.58 49.35 31.1C49.27 31.44 49.17 31.92 49.09 32.26C48.83 33.28 47.99 32.87 47.78 33.59L47.69 33.59L47.78 33.23C47.8 33.07 47.64 32.61 47.85 32ZM47.71 32C47.84 32.63 47.62 33.06 47.61 33.22L47.65 33.6L47.56 33.58C47.46 32.84 46.57 33.13 46.46 32.09C46.42 31.73 46.4 31.25 46.37 30.89C46.32 30.36 46.04 30.28 45.83 29.98C46.14 30.03 47.66 31.48 47.72 32L47.71 32ZM47.76 29.15C47.72 29.35 47.71 29.53 47.72 29.69C47.71 29.53 47.68 29.35 47.62 29.16C47.5 28.65 45.8 27.41 45.49 27.4C45.72 27.67 46.01 27.71 46.13 28.23C46.21 28.58 46.3 29.06 46.37 29.41C46.61 30.42 47.47 30.03 47.65 30.76L47.75 30.76L47.66 30.39C47.66 30.29 47.72 30.03 47.71 29.69C47.73 30.04 47.83 30.28 47.84 30.39L47.8 30.76L47.89 30.74C48 30 48.89 30.3 49.02 29.27C49.06 28.91 49.09 28.43 49.13 28.08C49.2 27.55 49.47 27.48 49.68 27.18C49.37 27.22 47.82 28.64 47.76 29.16L47.76 29.15ZM47.3 26.34C47.29 26.53 47.3 26.71 47.32 26.87C47.39 27.21 47.35 27.46 47.37 27.57L47.5 27.92L47.4 27.92C47.12 27.23 46.32 27.73 45.96 26.75C45.83 26.41 45.7 25.95 45.57 25.62C45.38 25.12 45.1 25.11 44.82 24.88C45.13 24.85 46.97 25.87 47.16 26.36C47.25 26.54 47.3 26.72 47.32 26.87C47.39 27.21 47.52 27.43 47.54 27.54L47.54 27.92L47.63 27.89C47.64 27.14 48.57 27.33 48.56 26.29C48.56 25.92 48.52 25.45 48.52 25.09C48.52 24.55 48.79 24.45 48.95 24.13C48.65 24.21 47.3 25.81 47.3 26.34L47.3 26.34ZM46.5 23.59C46.5 23.79 46.54 23.97 46.59 24.12C46.7 24.44 46.69 24.71 46.72 24.81L46.89 25.15L46.8 25.17C46.43 24.52 45.7 25.11 45.22 24.18C45.05 23.86 44.85 23.42 44.69 23.11C44.44 22.63 44.15 22.66 43.85 22.46C44.15 22.39 46.11 23.18 46.36 23.64C46.47 23.81 46.54 23.98 46.59 24.13C46.7 24.45 46.85 24.66 46.88 24.76L46.93 25.13L47.02 25.1C46.94 24.35 47.88 24.42 47.74 23.39C47.69 23.04 47.6 22.56 47.55 22.21C47.47 21.68 47.72 21.54 47.85 21.2C47.57 21.31 46.42 23.08 46.49 23.59L46.5 23.59ZM45.35 20.98C45.38 21.18 45.44 21.35 45.5 21.49C45.64 21.8 45.67 22.06 45.72 22.16L45.93 22.47L45.84 22.5C45.39 21.89 44.75 22.57 44.14 21.72C43.94 21.42 43.69 21.01 43.48 20.72C43.17 20.28 42.89 20.34 42.57 20.18C42.87 20.07 44.9 20.61 45.21 21.04C45.34 21.19 45.43 21.34 45.5 21.48C45.64 21.8 45.82 21.99 45.87 22.08L45.96 22.44L46.05 22.39C45.87 21.66 46.82 21.62 46.55 20.61C46.45 20.26 46.3 19.8 46.21 19.46C46.07 18.94 46.3 18.77 46.39 18.42C46.12 18.57 45.21 20.46 45.34 20.97L45.35 20.98ZM43.87 18.53C43.93 18.72 44.01 18.88 44.1 19.02C44.28 19.31 44.34 19.56 44.39 19.66L44.64 19.93L44.56 19.98C44.04 19.44 43.49 20.19 42.78 19.42C42.54 19.15 42.24 18.77 42 18.5C41.64 18.11 41.37 18.2 41.02 18.08C41.3 17.94 43.39 18.22 43.75 18.61C43.89 18.74 44 18.88 44.09 19.02C44.27 19.31 44.48 19.47 44.54 19.56L44.68 19.91L44.76 19.85C44.5 19.15 45.42 18.99 45.03 18.03C44.89 17.69 44.69 17.26 44.55 16.93C44.35 16.43 44.55 16.24 44.6 15.88C44.35 16.07 43.68 18.05 43.88 18.54L43.87 18.53ZM42.1 16.29C41.85 15.82 42.25 13.77 42.47 13.56C42.47 13.92 42.3 14.14 42.57 14.61C42.75 14.92 43.01 15.32 43.18 15.63C43.7 16.54 42.8 16.82 43.14 17.48L43.08 17.55L42.89 17.23C42.82 17.14 42.6 17.01 42.38 16.74C42.6 17.01 42.69 17.25 42.76 17.33L43.05 17.57L42.97 17.62C42.38 17.15 41.93 17.97 41.13 17.29C40.86 17.06 40.51 16.72 40.24 16.48C39.83 16.13 39.57 16.26 39.22 16.19C39.48 16.02 41.59 16.02 41.99 16.37C42.15 16.48 42.28 16.61 42.38 16.73C42.28 16.61 42.18 16.46 42.1 16.28L42.1 16.29ZM40.06 14.27C39.75 13.85 39.89 11.76 40.09 11.53C40.14 11.88 39.99 12.12 40.31 12.55C40.52 12.84 40.84 13.21 41.05 13.49C41.68 14.33 40.82 14.72 41.25 15.34L41.2 15.41L40.97 15.12C40.89 15.04 40.65 14.93 40.4 14.7C40.65 14.93 40.77 15.17 40.85 15.24L41.17 15.45L41.1 15.51C40.46 15.12 40.11 15.99 39.23 15.41C38.93 15.21 38.54 14.92 38.25 14.72C37.8 14.42 37.56 14.59 37.2 14.55C37.43 14.34 39.53 14.1 39.97 14.39C40.15 14.48 40.3 14.59 40.41 14.7C40.3 14.59 40.18 14.46 40.07 14.28L40.06 14.27ZM37.78 12.53C37.42 12.15 37.3 10.06 37.46 9.8C37.56 10.14 37.43 10.41 37.81 10.79C38.06 11.04 38.42 11.38 38.67 11.63C39.39 12.38 38.6 12.88 39.1 13.43L39.05 13.52L38.79 13.25C38.7 13.18 38.45 13.1 38.17 12.9C38.04 12.81 37.89 12.72 37.7 12.64C37.22 12.41 35.17 12.92 34.97 13.15C35.33 13.14 35.55 12.95 36.02 13.19C36.35 13.35 36.77 13.59 37.1 13.75C38.04 14.22 38.27 13.31 38.95 13.62L39.02 13.55L38.68 13.39C38.6 13.32 38.45 13.11 38.17 12.91C38.04 12.81 37.91 12.69 37.78 12.54L37.78 12.53ZM35.3 11.09C34.89 10.76 34.5 8.7 34.63 8.42C34.77 8.76 34.68 9.03 35.1 9.37C35.38 9.59 35.77 9.87 36.06 10.09C36.87 10.75 36.14 11.34 36.72 11.82L36.68 11.91L36.39 11.67C36.3 11.62 36.03 11.58 35.73 11.41C35.6 11.33 35.43 11.26 35.23 11.22C34.73 11.05 32.77 11.81 32.6 12.06C32.95 12.01 33.14 11.79 33.65 11.96C34 12.08 34.44 12.27 34.78 12.39C35.77 12.73 35.89 11.8 36.61 12.03L36.67 11.95L36.31 11.83C36.22 11.78 36.04 11.58 35.74 11.41C35.6 11.33 35.45 11.24 35.31 11.09L35.3 11.09Z" fill="url(#paint_linear_1006_8097_0)" fill-opacity="1.000000" fill-rule="evenodd"/>
		<path id="Vector" d="M26.22 2.81C27.74 3.49 29.22 4.13 30.67 4.73C32.12 5.34 33.54 5.89 34.95 6.4C36.37 6.91 37.72 7.37 39 7.74C40.28 8.11 41.58 8.43 42.9 8.69L44.15 8.94L45.82 9.27L45.85 10.96L45.88 12.23C45.99 16.84 45.75 21.23 45.12 25.34C44.49 29.51 43.46 33.44 41.97 37.09C40.46 40.82 38.49 44.24 36 47.31C33.51 50.37 30.51 53.1 26.94 55.43L26.02 56.03L24.8 56.83L23.62 55.98L22.74 55.35C19.22 52.81 16.21 49.98 13.7 46.85C11.19 43.74 9.18 40.32 7.64 36.61C6.14 32.94 5.11 29.02 4.56 24.86C4.01 20.71 3.92 16.31 4.28 11.7L4.39 10.35L4.52 8.55L6.34 8.42L7.69 8.31C8.57 8.25 9.52 8.08 10.54 7.81C11.6 7.55 12.79 7.16 14.07 6.7C15.43 6.2 16.84 5.63 18.32 5C19.73 4.39 21.34 3.66 23.11 2.84L23.77 2.52L24.66 2.11L25.55 2.51L26.21 2.81L26.22 2.81ZM32.4 13.3C31.02 12.79 29.61 12.24 28.17 11.65C27.08 11.2 25.93 10.7 24.73 10.18C23.33 10.82 22.06 11.39 20.93 11.87C19.47 12.5 18.03 13.07 16.6 13.59C15.39 14.03 14.21 14.41 13.08 14.73C12.55 14.88 12.02 15.01 11.51 15.12C11.4 18.38 11.55 21.48 11.97 24.4C12.45 27.79 13.29 30.94 14.49 33.85C15.67 36.73 17.25 39.42 19.2 41.93C20.86 44.04 22.79 46 25 47.81C27.12 46.18 28.96 44.35 30.54 42.34C32.43 39.93 33.95 37.26 35.12 34.37C36.33 31.39 37.2 28.16 37.75 24.71C38.23 21.7 38.47 18.53 38.52 15.22C37.78 15.02 37.05 14.81 36.3 14.59C34.95 14.18 33.64 13.75 32.39 13.3L32.4 13.3Z" fill="url(#paint_linear_1006_8098_0)" fill-opacity="1.000000" fill-rule="evenodd"/>
		<path id="Vector" d="M26.37 2.47C26.8 2.66 27.17 2.83 27.52 2.98C27.89 3.15 28.25 3.31 28.62 3.47C28.98 3.62 29.35 3.78 29.72 3.94C30.08 4.09 30.45 4.24 30.82 4.4C31.17 4.55 31.52 4.69 31.89 4.84C32.24 4.98 32.6 5.12 32.96 5.26C33.32 5.41 33.68 5.54 34.02 5.68C34.38 5.81 34.73 5.94 35.07 6.06C35.45 6.2 35.8 6.33 36.12 6.44C36.47 6.56 36.82 6.68 37.13 6.79C37.45 6.89 37.78 7 38.12 7.11C38.46 7.21 38.79 7.31 39.1 7.4C39.4 7.49 39.72 7.57 40.05 7.67C40.38 7.75 40.7 7.84 41.02 7.91C41.35 7.99 41.67 8.07 42 8.14C42.3 8.21 42.63 8.27 42.97 8.35L44.22 8.59L45.89 8.92L46.03 8.95L46.17 8.98L46.17 9.12L46.17 9.27L46.21 10.97L46.24 12.23C46.27 13.4 46.27 14.54 46.25 15.66C46.24 16.8 46.2 17.91 46.13 19.01C46.07 20.1 45.98 21.19 45.87 22.26C45.77 23.33 45.63 24.38 45.47 25.41C45.46 25.52 45.44 25.63 45.42 25.74C44.8 29.98 44.5 30.17 44.1 31.95C43.87 32.79 43.61 33.62 43.34 34.43C43.02 35.38 42.67 36.32 42.3 37.24C41.92 38.19 41.51 39.11 41.07 40.01C40.62 40.91 40.15 41.78 39.65 42.65C39.15 43.51 38.62 44.35 38.05 45.16C37.49 45.98 36.9 46.78 36.27 47.56C35.64 48.33 34.98 49.09 34.29 49.82C33.6 50.54 32.87 51.25 32.1 51.94C31.34 52.63 30.55 53.29 29.72 53.92C28.89 54.56 28.02 55.17 27.12 55.76L26.21 56.35L24.99 57.15L24.88 57.22L24.77 57.29L24.67 57.22L24.57 57.15L23.4 56.3L22.51 55.66C21.62 55.02 20.77 54.36 19.95 53.69C19.12 53.02 18.33 52.32 17.57 51.61C16.82 50.89 16.09 50.16 15.39 49.41C14.7 48.66 14.02 47.89 13.4 47.1C12.76 46.32 12.16 45.51 11.59 44.69C11.02 43.86 10.48 43.02 9.97 42.16C9.47 41.29 8.99 40.42 8.55 39.52C8.1 38.62 7.68 37.71 7.3 36.77C6.92 35.84 6.57 34.91 6.25 33.95C5.92 32.99 5.64 32.02 5.38 31.04C5.12 30.05 4.9 29.05 4.7 28.03C4.5 27.02 4.33 25.98 4.19 24.93C4.05 23.88 3.94 22.82 3.86 21.75C3.78 20.68 3.73 19.59 3.7 18.48C3.68 17.38 3.68 16.26 3.72 15.13C3.75 13.99 3.81 12.85 3.9 11.7L4.01 10.35L4.15 8.55L4.16 8.39L4.17 8.24L4.33 8.22L4.49 8.21L6.3 8.08L7.66 7.97C7.88 7.96 8.1 7.93 8.31 7.91C8.52 7.88 8.75 7.84 8.99 7.8C9.22 7.76 9.46 7.72 9.7 7.66C9.95 7.6 10.2 7.55 10.44 7.49C10.7 7.42 10.97 7.35 11.25 7.27C11.52 7.19 11.81 7.1 12.1 7.01C12.37 6.93 12.67 6.83 13 6.72C13.32 6.61 13.63 6.5 13.94 6.38C14.29 6.26 14.62 6.13 14.96 6C15.3 5.87 15.65 5.73 16 5.59C16.34 5.46 16.7 5.31 17.07 5.15C17.47 4.98 17.83 4.83 18.15 4.69C18.49 4.55 18.85 4.39 19.24 4.22C19.62 4.05 20.01 3.87 20.41 3.69C20.77 3.53 21.18 3.34 21.63 3.13C22.06 2.93 22.5 2.74 22.93 2.53L23.6 2.22L24.48 1.81L24.56 1.77L24.64 1.74L24.72 1.77L24.8 1.81L25.68 2.2L26.35 2.5L26.37 2.47ZM27.37 3.32C27.08 3.19 26.81 3.07 26.55 2.96C26.84 3.08 27.1 3.2 27.35 3.31C27.57 3.41 27.81 3.52 28.04 3.61C27.82 3.52 27.6 3.42 27.36 3.32L27.37 3.32ZM29.57 4.27L29.53 4.25L29.58 4.27L29.57 4.27ZM30.31 4.58C30.08 4.49 29.85 4.39 29.62 4.29C29.85 4.39 30.08 4.49 30.31 4.58ZM31.75 5.17L31.8 5.19L31.76 5.17L31.71 5.15L31.75 5.17L31.75 5.17ZM31.48 5.07L31.12 4.92C31.25 4.97 31.37 5.02 31.48 5.07ZM32.27 5.38C32.14 5.34 32.01 5.29 31.88 5.23C32.01 5.28 32.14 5.34 32.27 5.38ZM33.45 5.85C33.3 5.8 33.15 5.74 33 5.68C33.15 5.73 33.3 5.8 33.45 5.85ZM36.01 6.79C35.69 6.67 35.37 6.56 35.06 6.45C35.38 6.56 35.7 6.67 36 6.78L36.11 6.82L36.01 6.79ZM41.92 8.49C41.58 8.42 41.25 8.35 40.94 8.27C41.27 8.35 41.6 8.42 41.92 8.49C42.17 8.55 42.44 8.61 42.71 8.66C42.45 8.61 42.19 8.55 41.92 8.49L41.92 8.49ZM45.82 9.27L45.68 9.25L44.16 8.95L45.82 9.27ZM45.86 10.97L45.82 9.27L45.82 9.42L45.86 10.97ZM45.9 15.66C45.92 14.9 45.92 14.15 45.9 13.4C45.91 14.15 45.9 14.9 45.9 15.66C45.89 16.78 45.85 17.89 45.78 18.98C45.85 17.89 45.88 16.78 45.9 15.66L45.9 15.66ZM45.53 22.21C45.61 21.43 45.68 20.64 45.73 19.85C45.67 20.64 45.61 21.43 45.53 22.21C45.44 23.11 45.33 23.98 45.21 24.84C45.33 23.98 45.44 23.1 45.53 22.22L45.53 22.21ZM45.73 19.84C45.74 19.7 45.75 19.56 45.76 19.41C45.75 19.55 45.74 19.69 45.73 19.84ZM45.77 19.32C45.77 19.2 45.78 19.09 45.79 18.98C45.79 19.09 45.77 19.2 45.77 19.32ZM45.13 25.35C45.15 25.2 45.18 25.04 45.2 24.89C45.18 25.05 45.16 25.2 45.13 25.35ZM45.05 25.84C44.75 27.72 44.36 29.59 43.87 31.42C44.37 29.58 44.75 27.72 45.05 25.84ZM42.09 36.83C42.12 36.75 42.16 36.66 42.19 36.58C42.15 36.66 42.12 36.75 42.09 36.83ZM39.74 41.8C39.85 41.59 39.97 41.39 40.07 41.18C39.96 41.39 39.85 41.59 39.74 41.8ZM39.2 42.74C39.25 42.65 39.31 42.55 39.36 42.46C39.3 42.55 39.25 42.65 39.2 42.74ZM31.45 52.05C31.55 51.96 31.64 51.88 31.74 51.79C31.65 51.88 31.55 51.96 31.45 52.05ZM24.81 56.84L23.63 55.99L24.7 56.76L24.8 56.83L24.91 56.76L26.02 56.03L24.8 56.83L24.81 56.84ZM22.57 55.23C22.63 55.27 22.7 55.31 22.76 55.36C22.7 55.32 22.64 55.28 22.57 55.23ZM14.08 47.32C14.12 47.36 14.15 47.4 14.19 47.44L14.08 47.32ZM10.33 41.98C9.84 41.14 9.38 40.3 8.95 39.43C9.38 40.3 9.84 41.15 10.32 41.98L10.33 41.98ZM6.63 33.83C6.32 32.92 6.05 31.99 5.8 31.05C6.05 31.99 6.33 32.92 6.63 33.83ZM4.56 24.67C4.57 24.74 4.57 24.81 4.59 24.88L4.56 24.67ZM4.12 15.14C4.1 15.78 4.1 16.4 4.1 17.03C4.1 16.41 4.1 15.78 4.12 15.14C4.15 14.22 4.2 13.28 4.27 12.33C4.2 13.28 4.15 14.22 4.12 15.14ZM4.3 11.86C4.28 12 4.27 12.15 4.27 12.29C4.27 12.15 4.29 12 4.3 11.86ZM4.55 8.57L6.37 8.44L4.71 8.56L4.55 8.58L4.55 8.57ZM8.4 8.26C8.19 8.29 7.99 8.31 7.8 8.32C8 8.31 8.2 8.29 8.4 8.26C8.62 8.23 8.85 8.2 9.1 8.15C8.87 8.2 8.63 8.23 8.4 8.26ZM15.14 6.33C15.45 6.22 15.75 6.09 16.07 5.97C15.77 6.09 15.45 6.22 15.14 6.33ZM15.05 6.37C14.95 6.4 14.86 6.44 14.76 6.48C14.85 6.45 14.95 6.41 15.05 6.37ZM28.34 4.16C27.97 4 27.59 3.83 27.21 3.66C26.8 3.48 26.42 3.32 26.09 3.17L25.42 2.87L24.7 2.54L23.97 2.88L23.3 3.2C22.86 3.4 22.43 3.6 22.02 3.79C21.62 3.98 21.21 4.16 20.77 4.36C20.37 4.54 19.98 4.72 19.61 4.88C19.25 5.04 18.87 5.21 18.51 5.36C18.1 5.54 17.72 5.7 17.41 5.83C17.07 5.97 16.71 6.12 16.34 6.27C15.99 6.41 15.64 6.55 15.29 6.68C14.94 6.82 14.6 6.94 14.25 7.07C13.92 7.19 13.6 7.3 13.3 7.4C13.01 7.5 12.7 7.6 12.39 7.71C12.09 7.8 11.8 7.89 11.52 7.97C11.24 8.05 10.96 8.13 10.69 8.2C10.42 8.27 10.16 8.32 9.92 8.38C9.67 8.44 9.42 8.49 9.18 8.52C8.95 8.56 8.71 8.6 8.47 8.63C8.22 8.66 8 8.69 7.77 8.7L6.42 8.81L4.92 8.92L4.81 10.4L4.7 11.75C4.61 12.9 4.55 14.04 4.52 15.15C4.48 16.27 4.48 17.38 4.5 18.47C4.52 19.55 4.57 20.63 4.66 21.69C4.74 22.75 4.85 23.8 4.98 24.83C5.12 25.86 5.28 26.87 5.48 27.89C5.67 28.89 5.9 29.88 6.16 30.85C6.42 31.82 6.7 32.77 7.02 33.72C7.33 34.66 7.67 35.58 8.05 36.49C8.43 37.4 8.84 38.3 9.28 39.18C9.72 40.07 10.19 40.93 10.69 41.78C11.19 42.63 11.72 43.46 12.27 44.27C12.83 45.08 13.42 45.87 14.05 46.64C14.67 47.41 15.32 48.17 16 48.91C16.69 49.65 17.4 50.37 18.15 51.07C18.9 51.77 19.67 52.45 20.49 53.12C21.3 53.79 22.14 54.44 23.02 55.06L23.9 55.7L24.87 56.4L25.88 55.74L26.8 55.15C27.68 54.58 28.52 53.97 29.35 53.34C30.16 52.72 30.95 52.07 31.69 51.39C32.43 50.73 33.15 50.04 33.82 49.31C34.5 48.6 35.15 47.86 35.77 47.1C36.38 46.34 36.97 45.55 37.52 44.75C38.08 43.95 38.6 43.12 39.1 42.28C39.59 41.44 40.05 40.57 40.48 39.69C40.92 38.8 41.32 37.89 41.7 36.97C42.06 36.07 42.4 35.15 42.72 34.21C43.03 33.26 43.32 32.31 43.57 31.34C43.83 30.36 44.07 29.37 44.27 28.37C44.48 27.37 44.66 26.35 44.82 25.31C44.97 24.28 45.1 23.24 45.21 22.19C45.32 21.13 45.4 20.06 45.47 18.97C45.53 17.88 45.57 16.77 45.59 15.66C45.6 14.54 45.6 13.4 45.57 12.26L45.55 10.99L45.52 9.59L44.15 9.32L42.9 9.08C42.58 9.01 42.25 8.94 41.9 8.87C41.56 8.79 41.23 8.71 40.91 8.64C40.58 8.56 40.25 8.47 39.93 8.39C39.62 8.3 39.3 8.21 38.95 8.11C38.62 8.01 38.3 7.91 37.97 7.81C37.66 7.72 37.32 7.61 36.97 7.49C36.61 7.37 36.27 7.25 35.93 7.13C35.57 7.01 35.22 6.89 34.89 6.77C34.52 6.63 34.17 6.5 33.82 6.37C33.45 6.23 33.1 6.09 32.75 5.96C32.41 5.82 32.05 5.68 31.68 5.53C31.32 5.39 30.97 5.24 30.6 5.09C30.25 4.94 29.88 4.79 29.5 4.63C29.15 4.47 28.77 4.32 28.39 4.15L28.34 4.16ZM7.9 37.17L7.7 36.71C7.77 36.87 7.83 37.02 7.9 37.17ZM35.47 47.95L34.05 49.55C34.54 49.03 35.02 48.5 35.47 47.95ZM41.58 38.05L40.76 39.84C41.05 39.25 41.32 38.65 41.58 38.05ZM32.27 13.64C31.92 13.52 31.57 13.39 31.23 13.25C30.87 13.12 30.52 12.98 30.17 12.85C29.81 12.71 29.45 12.57 29.1 12.43C28.75 12.28 28.4 12.13 28.03 11.99C27.79 11.89 27.51 11.77 27.2 11.64C26.87 11.5 26.59 11.38 26.36 11.28C26.13 11.18 25.86 11.06 25.53 10.92C25.24 10.79 24.98 10.68 24.75 10.58L24.54 10.67L24.26 10.8C23.76 11.02 23.3 11.23 22.9 11.41C22.57 11.55 22.26 11.7 21.97 11.82C21.66 11.96 21.37 12.09 21.1 12.2C20.74 12.35 20.38 12.5 20 12.66C19.65 12.81 19.28 12.95 18.91 13.11C18.57 13.24 18.2 13.38 17.82 13.52C17.45 13.66 17.09 13.8 16.75 13.93C16.45 14.03 16.15 14.14 15.83 14.25C15.52 14.36 15.22 14.46 14.94 14.55C14.65 14.64 14.37 14.73 14.06 14.83C13.77 14.92 13.47 15 13.2 15.07C13.04 15.12 12.9 15.15 12.79 15.19C12.65 15.22 12.52 15.26 12.4 15.29C12.31 15.31 12.2 15.34 12.07 15.36C12.01 15.38 11.95 15.39 11.89 15.41C11.87 16.14 11.86 16.87 11.87 17.59C11.87 18.35 11.9 19.1 11.93 19.85C11.97 20.63 12.02 21.38 12.1 22.13C12.17 22.87 12.25 23.61 12.36 24.34C12.48 25.17 12.62 26 12.79 26.81C12.95 27.62 13.14 28.42 13.35 29.2C13.4 29.42 13.46 29.63 13.52 29.85C13.58 30.05 13.65 30.27 13.72 30.49C14.05 31.6 14.43 32.67 14.86 33.7C14.93 33.88 15.02 34.08 15.11 34.3C15.2 34.5 15.29 34.69 15.37 34.88C15.83 35.89 16.35 36.87 16.9 37.83C17.01 38.01 17.12 38.19 17.23 38.39C17.35 38.58 17.47 38.77 17.57 38.94C18.17 39.88 18.82 40.79 19.52 41.69C19.64 41.85 19.76 42 19.87 42.13C19.98 42.27 20.1 42.41 20.22 42.56C20.85 43.31 21.5 44.02 22.18 44.72C22.65 45.18 23.12 45.64 23.62 46.1C24.08 46.52 24.55 46.93 25.03 47.33C25.49 46.97 25.94 46.6 26.37 46.22C26.85 45.81 27.3 45.38 27.74 44.95C27.87 44.82 27.99 44.69 28.12 44.57C28.24 44.44 28.36 44.31 28.49 44.18C29.12 43.51 29.71 42.82 30.27 42.1C30.75 41.51 31.19 40.89 31.61 40.27C32.03 39.64 32.43 39 32.8 38.34C33.18 37.68 33.53 37.01 33.87 36.32C34.2 35.64 34.51 34.93 34.8 34.22C35.1 33.48 35.38 32.72 35.64 31.96C35.9 31.19 36.13 30.41 36.35 29.61C36.56 28.81 36.76 27.99 36.94 27.16C37.12 26.34 37.27 25.49 37.41 24.64C37.53 23.91 37.63 23.15 37.72 22.38C37.82 21.61 37.9 20.83 37.96 20.05C38.02 19.27 38.07 18.5 38.11 17.72C38.15 16.99 38.17 16.24 38.18 15.5C38.07 15.47 37.96 15.44 37.83 15.41C37.62 15.35 37.46 15.31 37.35 15.27C37.19 15.23 37 15.17 36.8 15.12C36.64 15.07 36.45 15.01 36.22 14.95C35.87 14.84 35.54 14.73 35.21 14.64C34.87 14.53 34.55 14.42 34.22 14.32C33.9 14.2 33.57 14.1 33.25 13.98C32.93 13.87 32.62 13.76 32.31 13.65L32.27 13.64ZM32.4 13.3C32.72 13.41 33.02 13.52 33.35 13.63C33.52 13.69 33.7 13.75 33.89 13.81C33.71 13.76 33.53 13.69 33.36 13.63C33.03 13.52 32.71 13.4 32.41 13.29L32.4 13.3ZM30.62 12.63C30.87 12.73 31.12 12.82 31.36 12.91L30.62 12.63ZM27.34 11.31C27.58 11.41 27.86 11.53 28.17 11.65C27.93 11.55 27.66 11.44 27.35 11.31C27.07 11.2 26.83 11.09 26.62 11.01C26.9 11.13 27.14 11.23 27.33 11.31L27.34 11.31ZM25.67 10.59C25.9 10.69 26.18 10.81 26.5 10.94C26.25 10.84 25.96 10.71 25.62 10.57C25.35 10.45 25.1 10.34 24.87 10.24C25.17 10.38 25.44 10.49 25.67 10.59ZM24.65 10.22L24.73 10.18L24.6 10.24L24.65 10.22ZM24.37 10.34L24.36 10.34L24.44 10.31L24.37 10.34ZM24.1 10.47L24.32 10.37C24.12 10.46 23.92 10.55 23.71 10.65C23.41 10.78 23.15 10.9 22.91 11.01C23.32 10.82 23.71 10.65 24.1 10.47ZM21.8 11.5L21.75 11.53L21.81 11.5L22.05 11.39L21.8 11.5L21.8 11.5ZM22.35 11.26C22.45 11.21 22.55 11.16 22.65 11.12C22.55 11.17 22.45 11.21 22.35 11.26ZM21.22 11.75C21.38 11.68 21.56 11.6 21.74 11.53C21.57 11.6 21.39 11.67 21.22 11.75ZM20.15 12.21C20.3 12.14 20.46 12.08 20.62 12.01C20.46 12.07 20.3 12.13 20.15 12.21ZM19.83 12.33L19.85 12.33L19.84 12.33L19.83 12.33ZM17.69 13.18C18.03 13.06 18.39 12.91 18.77 12.77C18.42 12.9 18.06 13.04 17.69 13.18C17.35 13.31 17.02 13.44 16.7 13.55C17.04 13.43 17.37 13.3 17.69 13.18ZM15.71 13.91C15.92 13.83 16.13 13.76 16.35 13.68C16.14 13.75 15.92 13.83 15.71 13.9C15.48 13.98 15.26 14.05 15.05 14.12C15.27 14.05 15.49 13.98 15.7 13.91L15.71 13.91ZM13.95 14.47C14.19 14.4 14.44 14.32 14.7 14.24C14.46 14.32 14.21 14.39 13.95 14.47C13.74 14.54 13.53 14.6 13.32 14.66C13.54 14.6 13.75 14.54 13.95 14.47ZM11.98 15.01C12.05 15 12.13 14.98 12.22 14.95C12.12 14.98 12.02 15 11.9 15.03C11.82 15.05 11.75 15.07 11.68 15.08L11.97 15.01L11.98 15.01ZM11.49 17.6C11.49 16.92 11.49 16.24 11.51 15.56C11.49 16.44 11.48 17.32 11.5 18.18C11.5 18.52 11.51 18.85 11.52 19.18L11.52 19.31C11.51 18.74 11.5 18.18 11.49 17.6ZM11.51 15.55C11.51 15.46 11.51 15.36 11.52 15.26C11.52 15.36 11.52 15.45 11.51 15.55ZM11.55 19.88L11.55 19.66C11.55 19.73 11.55 19.81 11.55 19.88ZM11.58 20.41C11.58 20.33 11.57 20.24 11.57 20.17C11.57 20.24 11.57 20.33 11.58 20.41ZM11.96 24.24C11.92 23.97 11.89 23.69 11.85 23.42C11.87 23.55 11.88 23.66 11.9 23.77C11.92 23.91 11.94 24.08 11.96 24.24ZM11.82 23.14L11.8 22.97C11.8 23.03 11.81 23.08 11.82 23.14ZM12 24.57C12 24.51 11.99 24.45 11.97 24.39C11.98 24.44 11.99 24.5 12 24.57ZM17.25 39.13C17.19 39.05 17.14 38.96 17.09 38.89C17.5 39.55 17.95 40.21 18.41 40.85C18.52 41.01 18.66 41.19 18.8 41.38C18.84 41.43 18.87 41.48 18.92 41.53L17.25 39.13ZM19.57 42.36L19.29 42.02C19.38 42.13 19.47 42.24 19.57 42.36ZM19.75 42.58L19.57 42.36C19.63 42.43 19.69 42.51 19.75 42.58ZM21.52 44.57L21.47 44.52L21.5 44.56L21.52 44.57ZM21.12 44.15L21.04 44.06L21.12 44.15L21.12 44.15ZM24.11 47.05C24.05 47 24 46.95 23.95 46.9C24 46.95 24.05 47 24.11 47.05ZM25.13 47.72L25.02 47.81C25.78 47.22 26.5 46.61 27.2 45.98C27.27 45.91 27.35 45.83 27.43 45.76C27.17 46.01 26.89 46.26 26.61 46.5C26.13 46.92 25.65 47.32 25.13 47.72ZM27.58 45.61C27.54 45.65 27.5 45.69 27.45 45.73C27.5 45.69 27.54 45.64 27.58 45.61ZM30.47 42.43C30.05 42.96 29.62 43.48 29.16 43.98C29.4 43.71 29.64 43.44 29.87 43.16C29.99 43.02 30.1 42.89 30.21 42.75C30.3 42.65 30.38 42.54 30.47 42.43ZM29.15 43.99C29.1 44.06 29.04 44.12 28.97 44.18C29.03 44.12 29.1 44.06 29.15 43.99ZM31.9 40.48C32.02 40.3 32.15 40.1 32.27 39.92C32.15 40.11 32.02 40.3 31.9 40.49C31.56 40.99 31.2 41.49 30.84 41.97C31.21 41.49 31.56 40.99 31.9 40.48L31.9 40.48ZM32.8 39.06C32.7 39.23 32.59 39.4 32.48 39.57C32.59 39.4 32.69 39.23 32.8 39.06ZM34.18 36.49C33.85 37.19 33.49 37.87 33.1 38.53C33.48 37.87 33.85 37.19 34.18 36.49C34.49 35.86 34.77 35.23 35.05 34.57L34.18 36.49ZM35.97 32.09C35.75 32.75 35.5 33.4 35.25 34.05C35.51 33.4 35.75 32.75 35.97 32.09C36.2 31.41 36.41 30.71 36.61 29.99C36.41 30.7 36.2 31.4 35.97 32.09ZM35.22 34.15C35.19 34.23 35.16 34.3 35.12 34.37C35.15 34.3 35.18 34.23 35.22 34.15ZM37.24 27.47C37.1 28.14 36.94 28.79 36.77 29.44C36.94 28.79 37.1 28.14 37.24 27.47ZM38.45 17.75C38.42 18.32 38.4 18.87 38.35 19.42C38.4 18.85 38.42 18.27 38.45 17.69C38.45 17.57 38.46 17.47 38.47 17.35C38.47 17.49 38.45 17.62 38.45 17.75ZM38.39 15.19L38.52 15.23C38.37 15.19 38.18 15.14 37.98 15.08C37.8 15.03 37.64 14.99 37.5 14.95C37.67 15 37.8 15.04 37.9 15.06C38.03 15.1 38.2 15.14 38.38 15.19L38.39 15.19ZM30.45 12.18C30.11 12.04 29.76 11.9 29.4 11.76C29.03 11.61 28.67 11.47 28.32 11.32C28.02 11.2 27.75 11.09 27.51 10.98C27.29 10.89 27 10.77 26.66 10.62C26.32 10.48 26.04 10.35 25.78 10.24C25.52 10.13 25.23 10 24.9 9.85L24.82 9.82L24.74 9.78L24.66 9.82L24.58 9.85C24.2 10.03 23.86 10.19 23.56 10.32C23.27 10.46 22.94 10.6 22.58 10.76C22.27 10.9 21.97 11.04 21.66 11.16C21.37 11.29 21.08 11.42 20.79 11.54C20.41 11.7 20.04 11.85 19.7 12C19.32 12.16 18.97 12.3 18.62 12.43C18.25 12.58 17.89 12.72 17.55 12.85C17.21 12.98 16.85 13.11 16.49 13.25C16.18 13.36 15.88 13.47 15.59 13.57C15.3 13.66 15.01 13.76 14.7 13.86C14.4 13.96 14.11 14.05 13.84 14.13C13.56 14.22 13.27 14.3 13 14.38C12.87 14.42 12.75 14.45 12.61 14.49C12.49 14.52 12.35 14.55 12.21 14.59C12.05 14.63 11.92 14.66 11.82 14.68C11.7 14.71 11.57 14.74 11.44 14.77L11.3 14.8L11.17 14.83L11.17 14.97L11.16 15.11C11.12 16.15 11.12 17.18 11.14 18.19C11.14 18.53 11.15 18.86 11.17 19.2C11.17 19.42 11.18 19.64 11.2 19.85L11.2 19.9C11.25 21.02 11.35 22.12 11.47 23.19C11.49 23.38 11.52 23.59 11.55 23.81C11.57 24.03 11.6 24.24 11.63 24.44C11.75 25.3 11.9 26.14 12.06 26.96C12.22 27.78 12.42 28.59 12.62 29.39C12.83 30.18 13.07 30.96 13.32 31.73C13.58 32.49 13.86 33.24 14.17 33.98C14.47 34.71 14.79 35.42 15.14 36.12C15.49 36.83 15.86 37.52 16.25 38.2C16.82 39.18 17.45 40.13 18.12 41.06C18.26 41.26 18.4 41.44 18.52 41.6C18.65 41.78 18.79 41.95 18.92 42.13C19.52 42.9 20.16 43.65 20.84 44.38C20.97 44.52 21.1 44.65 21.24 44.8C21.37 44.94 21.51 45.08 21.65 45.22C22.35 45.93 23.08 46.62 23.86 47.29C24.02 47.43 24.17 47.56 24.32 47.68C24.46 47.8 24.62 47.93 24.78 48.07L24.9 48.16L25.01 48.25L25.12 48.16L25.24 48.07C26.01 47.48 26.74 46.85 27.44 46.21C27.57 46.09 27.71 45.96 27.84 45.83C27.97 45.7 28.1 45.57 28.23 45.45C28.9 44.78 29.54 44.09 30.14 43.38C30.25 43.24 30.37 43.1 30.49 42.96C30.61 42.81 30.72 42.67 30.82 42.53C31.3 41.93 31.75 41.3 32.19 40.66C32.62 40.02 33.02 39.36 33.41 38.69C33.8 38.02 34.16 37.33 34.5 36.63C34.84 35.93 35.15 35.21 35.45 34.48C35.76 33.73 36.04 32.97 36.3 32.18C36.57 31.39 36.81 30.59 37.02 29.79C37.25 28.98 37.45 28.15 37.62 27.31C37.8 26.47 37.96 25.61 38.1 24.74C38.22 23.98 38.33 23.21 38.42 22.44C38.52 21.66 38.6 20.88 38.66 20.08C38.72 19.3 38.77 18.5 38.81 17.67C38.85 16.87 38.87 16.04 38.88 15.2L38.88 15.06L38.88 14.92L38.75 14.88L38.6 14.85C38.4 14.8 38.22 14.75 38.06 14.71C37.92 14.67 37.73 14.61 37.5 14.55C37.22 14.47 36.95 14.39 36.7 14.32L36.55 14.27L36.4 14.23C36.07 14.13 35.74 14.03 35.4 13.93C35.07 13.82 34.75 13.71 34.42 13.61C34.1 13.5 33.79 13.4 33.47 13.28C33.17 13.18 32.85 13.06 32.52 12.94C32.18 12.82 31.84 12.69 31.48 12.56C31.14 12.43 30.79 12.3 30.43 12.16L30.45 12.18ZM31.37 12.92L30.63 12.64C30.87 12.73 31.12 12.83 31.37 12.92ZM34.16 13.92L33.97 13.86C34.04 13.88 34.1 13.9 34.16 13.92ZM37.28 27.26C37.3 27.2 37.31 27.14 37.32 27.08L37.28 27.26Z" fill="url(#paint_linear_1006_8099_0)" fill-opacity="1.000000" fill-rule="evenodd"/>
		<path id="Vector" d="M26.22 2.81C27.74 3.49 29.22 4.13 30.67 4.73C32.12 5.34 33.54 5.89 34.95 6.4C35.51 6.61 36.06 6.8 36.6 6.98C33.95 8.28 31.5 10.02 29.34 12.12C28.95 11.96 28.57 11.81 28.17 11.65C27.09 11.2 25.94 10.7 24.74 10.18C23.34 10.82 22.07 11.39 20.94 11.87C19.47 12.5 18.04 13.07 16.61 13.59C15.4 14.03 14.22 14.41 13.09 14.73C12.55 14.88 12.03 15.01 11.52 15.12C11.41 18.38 11.56 21.48 11.97 24.4C12.46 27.79 13.3 30.94 14.5 33.85C15.68 36.73 17.25 39.42 19.21 41.93C19.3 42.05 19.4 42.16 19.49 42.28C20.22 47.68 22.09 52.63 24.82 56.83L23.64 55.99L22.75 55.35C19.23 52.82 16.22 49.99 13.71 46.86C11.2 43.75 9.2 40.32 7.66 36.61C6.15 32.95 5.12 29.03 4.57 24.86C4.02 20.71 3.94 16.32 4.3 11.7L4.4 10.36L4.54 8.56L6.35 8.42L7.71 8.32C8.59 8.25 9.54 8.08 10.55 7.82C11.62 7.55 12.8 7.17 14.09 6.7C15.45 6.21 16.86 5.64 18.33 5.01C19.74 4.4 21.36 3.66 23.12 2.84L23.79 2.53L24.67 2.12L25.56 2.52L26.22 2.81L26.22 2.81Z" fill="url(#paint_linear_1006_8100_0)" fill-opacity="1.000000" fill-rule="evenodd"/>
		<path id="Vector" d="M26.3 2.64C27.07 2.99 27.82 3.32 28.55 3.64C29.29 3.95 30.02 4.27 30.75 4.57C31.46 4.87 32.17 5.16 32.89 5.44C33.61 5.72 34.32 5.99 35.02 6.24C35.73 6.5 36.42 6.74 37.08 6.96C37.75 7.18 38.41 7.38 39.05 7.57C39.68 7.75 40.32 7.93 40.98 8.08C41.62 8.24 42.28 8.39 42.94 8.52L44.19 8.76L45.85 9.09L46 9.12L46 9.27L46.04 10.96L46.07 12.23C46.12 14.54 46.09 16.79 45.96 18.98C45.84 21.18 45.62 23.31 45.31 25.37C45.23 25.9 45.14 26.42 45.05 26.94C44.87 28.18 44.59 29.43 44.25 30.69C44.19 30.95 44.12 31.2 44.05 31.46C43.53 33.43 42.89 35.32 42.15 37.16C41.39 39.03 40.52 40.82 39.52 42.53C38.52 44.25 37.39 45.88 36.14 47.42C34.89 48.96 33.52 50.42 32 51.78C30.49 53.14 28.84 54.4 27.05 55.58L26.13 56.18L24.91 56.98L24.8 57.05L24.7 56.98L23.52 56.13L22.64 55.5C20.87 54.22 19.23 52.87 17.72 51.45C16.21 50.03 14.82 48.53 13.57 46.97C12.31 45.4 11.17 43.76 10.16 42.05C9.15 40.33 8.26 38.54 7.49 36.68C6.73 34.83 6.09 32.93 5.58 30.97C5.07 29 4.67 26.97 4.39 24.88C4.12 22.8 3.96 20.66 3.91 18.46C3.86 16.26 3.93 14 4.11 11.69L4.22 10.34L4.35 8.54L4.37 8.39L4.52 8.37L6.34 8.24L7.69 8.13C8.12 8.1 8.57 8.04 9.05 7.96C9.52 7.87 10.01 7.76 10.51 7.64C11.04 7.5 11.59 7.34 12.18 7.16C12.77 6.97 13.38 6.76 14.02 6.52C14.7 6.28 15.39 6.02 16.09 5.73C16.81 5.45 17.52 5.14 18.25 4.83C18.95 4.53 19.71 4.19 20.51 3.83C21.3 3.48 22.14 3.09 23.04 2.67L23.7 2.36L24.59 1.95L24.67 1.91L24.75 1.95L25.63 2.35L26.3 2.64L26.3 2.64ZM28.4 3.97C27.64 3.65 26.89 3.32 26.15 2.98L25.49 2.69L24.68 2.32L23.87 2.7L23.21 3.01C22.34 3.42 21.5 3.81 20.68 4.18C19.88 4.54 19.12 4.87 18.42 5.19C17.67 5.5 16.95 5.81 16.25 6.09C15.55 6.37 14.85 6.64 14.17 6.89C13.52 7.12 12.9 7.33 12.31 7.52C11.72 7.71 11.15 7.88 10.62 8.01C10.09 8.15 9.6 8.25 9.12 8.34C8.64 8.42 8.18 8.48 7.74 8.52L6.38 8.62L4.72 8.75L4.59 10.39L4.49 11.74C4.31 14.05 4.25 16.29 4.29 18.47C4.33 20.66 4.5 22.79 4.77 24.86C5.04 26.94 5.43 28.95 5.94 30.9C6.46 32.86 7.09 34.74 7.84 36.57C8.59 38.41 9.48 40.19 10.48 41.9C11.48 43.6 12.61 45.23 13.85 46.78C15.1 48.33 16.48 49.82 17.97 51.22C19.47 52.63 21.09 53.97 22.85 55.23L23.74 55.87L24.81 56.64L25.92 55.91L26.84 55.31C28.62 54.15 30.25 52.9 31.75 51.54C33.25 50.2 34.62 48.75 35.85 47.23C37.09 45.7 38.2 44.09 39.19 42.39C40.18 40.69 41.05 38.91 41.8 37.07C42.55 35.25 43.17 33.35 43.69 31.41C44.21 29.45 44.62 27.43 44.94 25.36C45.25 23.3 45.47 21.19 45.59 19C45.71 16.82 45.75 14.57 45.7 12.28L45.67 11.01L45.63 9.46L44.11 9.17L42.86 8.92C42.2 8.79 41.54 8.64 40.88 8.48C40.23 8.32 39.58 8.15 38.93 7.96C38.29 7.77 37.63 7.57 36.95 7.34C36.27 7.11 35.57 6.87 34.87 6.62C34.16 6.35 33.45 6.09 32.74 5.81C32.03 5.53 31.31 5.24 30.58 4.94C29.87 4.64 29.13 4.33 28.38 4L28.4 3.97ZM32.34 13.48C31.65 13.23 30.95 12.96 30.25 12.69C29.54 12.41 28.82 12.13 28.1 11.83C27.55 11.6 27 11.37 26.43 11.13C25.89 10.89 25.32 10.65 24.74 10.4C24.06 10.71 23.42 11 22.81 11.27C22.17 11.55 21.57 11.82 21.01 12.06C20.29 12.37 19.56 12.67 18.83 12.96C18.11 13.24 17.39 13.52 16.67 13.78C16.06 14 15.46 14.21 14.87 14.39C14.29 14.59 13.71 14.76 13.14 14.92C12.86 15 12.59 15.07 12.34 15.13C12.12 15.18 11.91 15.24 11.7 15.29C11.64 16.86 11.66 18.4 11.73 19.89C11.81 21.43 11.95 22.93 12.16 24.39C12.4 26.07 12.73 27.7 13.14 29.27C13.57 30.84 14.07 32.35 14.67 33.79C15.25 35.22 15.94 36.61 16.72 37.95C17.5 39.29 18.38 40.58 19.36 41.83C20.19 42.88 21.08 43.89 22.04 44.87C22.97 45.81 23.96 46.72 25.02 47.59C26.03 46.81 26.97 45.98 27.85 45.1C28.77 44.2 29.62 43.24 30.4 42.24C31.34 41.05 32.19 39.78 32.95 38.46C33.7 37.14 34.37 35.76 34.95 34.32C35.55 32.84 36.07 31.29 36.51 29.69C36.95 28.08 37.3 26.41 37.57 24.7C37.82 23.21 38 21.67 38.12 20.09C38.25 18.55 38.32 16.98 38.34 15.39C38.02 15.3 37.7 15.21 37.37 15.12C37.02 15.02 36.65 14.92 36.25 14.8C35.57 14.59 34.91 14.38 34.26 14.17C33.6 13.95 32.97 13.73 32.34 13.5L32.34 13.48ZM30.38 12.35C29.68 12.07 28.97 11.79 28.25 11.49C27.71 11.27 27.15 11.04 26.57 10.79C26 10.54 25.4 10.29 24.81 10.02L24.73 9.99L24.65 10.02C23.96 10.34 23.29 10.65 22.65 10.93C22.02 11.21 21.42 11.48 20.86 11.72C20.12 12.03 19.39 12.33 18.69 12.61C17.97 12.89 17.25 13.17 16.54 13.42C15.94 13.64 15.34 13.85 14.76 14.04C14.17 14.23 13.59 14.4 13.04 14.56C12.78 14.63 12.52 14.7 12.25 14.76C11.98 14.83 11.72 14.89 11.47 14.95L11.34 14.97L11.34 15.12C11.28 16.75 11.29 18.35 11.37 19.89C11.45 21.44 11.59 22.96 11.8 24.42C12.04 26.12 12.37 27.76 12.79 29.35C13.21 30.93 13.72 32.45 14.32 33.92C14.92 35.37 15.61 36.77 16.4 38.12C17.2 39.47 18.08 40.78 19.07 42.04C19.89 43.1 20.8 44.12 21.77 45.11C22.75 46.1 23.79 47.05 24.89 47.95L25.01 48.04L25.12 47.95C26.19 47.13 27.18 46.26 28.11 45.35C29.04 44.43 29.89 43.46 30.69 42.45C31.64 41.24 32.5 39.96 33.26 38.62C34.02 37.29 34.7 35.89 35.29 34.44C35.89 32.94 36.42 31.38 36.86 29.76C37.3 28.15 37.65 26.47 37.93 24.74C38.17 23.23 38.36 21.68 38.49 20.1C38.62 18.52 38.69 16.89 38.71 15.22L38.71 15.08L38.57 15.05C38.22 14.95 37.85 14.85 37.47 14.75C37.09 14.64 36.72 14.53 36.36 14.42C35.69 14.22 35.03 14.01 34.37 13.79C33.73 13.58 33.09 13.36 32.47 13.13C31.77 12.88 31.07 12.61 30.37 12.34L30.38 12.35Z" fill="url(#paint_linear_1006_8101_0)" fill-opacity="1.000000" fill-rule="evenodd"/>
		<path id="Vector" d="M25.35 4.72C28.41 6.09 31.36 7.34 34.22 8.37C37.05 9.4 39.8 10.22 42.5 10.75" stroke="#1A1A1A" stroke-opacity="1.000000" stroke-width="0.720000"/>
		<path id="Vector" d="M42.5 10.76L43.75 11L43.78 12.27" stroke="#1A1A1A" stroke-opacity="1.000000" stroke-width="0.720000"/>
		<path id="Vector" d="M43.78 12.27C43.98 21.22 42.86 29.34 40.02 36.32C37.15 43.38 32.54 49.28 25.79 53.68" stroke="#1A1A1A" stroke-opacity="1.000000" stroke-width="0.720000"/>
		<path id="Vector" d="M25.79 53.69L24.87 54.29L23.99 53.65" stroke="#1A1A1A" stroke-opacity="1.000000" stroke-width="0.720000"/>
		<path id="Vector" d="M23.99 53.65C17.26 48.8 12.51 42.85 9.61 35.82C6.73 28.84 5.7 20.84 6.4 11.86" stroke="#1A1A1A" stroke-opacity="1.000000" stroke-width="0.720000"/>
		<path id="Vector" d="M6.4 11.86L6.5 10.51L7.87 10.41" stroke="#1A1A1A" stroke-opacity="1.000000" stroke-width="0.720000"/>
		<path id="Vector" d="M7.87 10.41C9.82 10.26 12.15 9.63 14.81 8.67C17.54 7.68 20.62 6.32 24.02 4.73" stroke="#1A1A1A" stroke-opacity="1.000000" stroke-width="0.720000"/>
		<path id="Vector" d="M24.02 4.73L24.69 4.42L25.35 4.72" stroke="#1A1A1A" stroke-opacity="1.000000" stroke-width="0.720000"/>
		<path id="Vector" d="M33.13 11.33C30.4 10.34 27.6 9.17 24.72 7.89C21.51 9.37 18.56 10.65 15.89 11.62C13.54 12.48 11.4 13.09 9.47 13.38C9 21.36 9.99 28.46 12.54 34.64C15.07 40.79 19.18 46.07 24.96 50.45C30.64 46.49 34.57 41.31 37.07 35.15C39.62 28.89 40.7 21.63 40.63 13.58C38.17 13.02 35.67 12.26 33.13 11.33" stroke="#1A1A1A" stroke-opacity="1.000000" stroke-width="0.720000"/>
		<path id="Vector" d="M25.35 4.72C28.41 6.09 31.36 7.34 34.22 8.37C37.05 9.4 39.8 10.22 42.5 10.75L43.75 11L43.78 12.27C43.98 21.22 42.86 29.34 40.02 36.32C37.15 43.38 32.54 49.28 25.79 53.68L25 54.19L25 50.42C30.66 46.46 34.58 41.29 37.08 35.15C39.62 28.89 40.7 21.63 40.64 13.58C38.17 13.02 35.68 12.26 33.14 11.33C30.5 10.37 27.8 9.24 25.01 8.01L25.01 4.56L25.36 4.71L25.35 4.72ZM25 54.2L25 50.42L24.97 50.45C19.19 46.08 15.08 40.8 12.55 34.64C10 28.47 9.02 21.37 9.48 13.39C11.4 13.09 13.55 12.48 15.9 11.63C18.57 10.66 21.51 9.38 24.72 7.89L25.01 8.02L25.01 4.57L24.7 4.43L24.04 4.74C20.64 6.33 17.55 7.69 14.82 8.68C12.17 9.64 9.84 10.27 7.88 10.41L6.52 10.52L6.42 11.87C5.72 20.85 6.75 28.84 9.62 35.83C12.52 42.85 17.27 48.81 24 53.65L24.89 54.29L25.02 54.21L25 54.2Z" fill="url(#paint_linear_1006_8112_0)" fill-opacity="1.000000" fill-rule="evenodd"/>
		<path id="Vector" d="M33.95 10.31C32.27 9.7 30.57 9.03 28.83 8.32C27.52 7.78 26.13 7.18 24.67 6.54C22.99 7.32 21.45 8.01 20.09 8.59C18.32 9.34 16.59 10.03 14.86 10.66C13.39 11.19 11.97 11.66 10.6 12.04C9.96 12.21 9.32 12.38 8.7 12.51C8.57 16.45 8.75 20.19 9.26 23.72C9.85 27.81 10.85 31.62 12.31 35.15C13.75 38.62 15.64 41.88 18.01 44.9C20.02 47.46 22.35 49.83 25.02 52.02C27.58 50.05 29.8 47.83 31.71 45.4C34 42.49 35.82 39.27 37.25 35.77C38.71 32.16 39.75 28.26 40.42 24.09C41.01 20.46 41.31 16.63 41.36 12.62C40.47 12.39 39.58 12.14 38.67 11.87C37.04 11.37 35.47 10.85 33.97 10.3L33.95 10.31Z" fill="#000000" fill-opacity="1.000000" fill-rule="evenodd"/>
		<path id="Vector" d="M33.83 10.63C33 10.32 32.15 10 31.29 9.67C30.43 9.34 29.57 8.99 28.7 8.63C28.03 8.35 27.36 8.07 26.67 7.78C26.03 7.5 25.37 7.21 24.68 6.91C23.89 7.28 23.12 7.62 22.4 7.95C21.62 8.3 20.9 8.61 20.22 8.9C19.35 9.27 18.47 9.63 17.59 9.98C16.72 10.33 15.85 10.66 14.97 10.97C14.23 11.24 13.5 11.49 12.8 11.72C12.09 11.95 11.39 12.16 10.69 12.35C10.35 12.45 10.02 12.53 9.72 12.61C9.5 12.67 9.27 12.72 9.03 12.78C8.97 14.65 8.99 16.47 9.08 18.25C9.17 20.1 9.35 21.92 9.6 23.67C9.89 25.71 10.28 27.67 10.78 29.56C11.29 31.45 11.9 33.27 12.62 35.02C13.32 36.74 14.15 38.41 15.1 40.03C16.04 41.63 17.1 43.19 18.27 44.69C19.26 45.97 20.34 47.19 21.5 48.36C22.6 49.48 23.77 50.55 25.02 51.59C26.21 50.66 27.32 49.67 28.36 48.65C29.46 47.56 30.48 46.41 31.43 45.2C32.57 43.75 33.59 42.23 34.5 40.64C35.41 39.05 36.22 37.38 36.92 35.65C37.65 33.86 38.27 32 38.79 30.06C39.32 28.12 39.74 26.12 40.07 24.05C40.37 22.25 40.58 20.39 40.74 18.48C40.89 16.65 40.97 14.79 41 12.89C40.63 12.79 40.27 12.69 39.92 12.6C39.5 12.47 39.05 12.35 38.56 12.2C37.73 11.95 36.93 11.7 36.15 11.43C35.35 11.17 34.58 10.9 33.83 10.63ZM31.54 9.04C32.38 9.37 33.22 9.68 34.07 10C34.82 10.27 35.59 10.54 36.37 10.8C37.15 11.06 37.95 11.31 38.76 11.55C39.17 11.68 39.62 11.81 40.1 11.94C40.56 12.07 41 12.19 41.43 12.3L41.69 12.38L41.69 12.64C41.66 14.66 41.57 16.62 41.42 18.53C41.26 20.44 41.04 22.32 40.75 24.15C40.41 26.25 39.97 28.28 39.45 30.24C38.92 32.19 38.28 34.08 37.55 35.9C36.83 37.67 36.01 39.36 35.08 40.98C34.15 42.6 33.11 44.15 31.97 45.62C31.01 46.84 29.97 48.01 28.84 49.13C27.71 50.24 26.51 51.3 25.22 52.29L25 52.46L24.79 52.29C23.44 51.18 22.18 50.03 21 48.84C19.82 47.65 18.73 46.4 17.72 45.12C16.53 43.6 15.46 42.02 14.5 40.37C13.55 38.74 12.71 37.04 11.98 35.28C11.25 33.5 10.62 31.65 10.12 29.74C9.61 27.82 9.2 25.84 8.91 23.78C8.65 22 8.48 20.17 8.39 18.29C8.3 16.41 8.28 14.49 8.35 12.5L8.35 12.24L8.62 12.18C8.92 12.12 9.22 12.04 9.55 11.96C9.88 11.88 10.2 11.8 10.5 11.72C11.17 11.53 11.87 11.32 12.58 11.09C13.29 10.87 14.01 10.62 14.74 10.35C15.6 10.04 16.46 9.7 17.33 9.37C18.18 9.03 19.06 8.66 19.95 8.28C20.65 7.98 21.37 7.67 22.12 7.33C22.88 6.99 23.69 6.62 24.53 6.23L24.67 6.17L24.82 6.23C25.54 6.55 26.25 6.86 26.95 7.16C27.65 7.46 28.32 7.74 28.97 8.01C29.84 8.37 30.7 8.71 31.55 9.04L31.54 9.04Z" fill="url(#paint_linear_1006_8114_0)" fill-opacity="1.000000" fill-rule="evenodd"/>
		<path id="Vector" d="M33.95 10.31C32.27 9.7 30.57 9.03 28.83 8.32C27.52 7.78 26.13 7.18 24.67 6.54C22.99 7.32 21.45 8.01 20.09 8.59C18.32 9.34 16.59 10.03 14.86 10.66C13.39 11.19 11.97 11.66 10.6 12.04C9.96 12.21 9.32 12.38 8.7 12.51C8.57 16.45 8.75 20.19 9.26 23.72C9.85 27.81 10.85 31.62 12.31 35.15C13.75 38.62 15.64 41.88 18.01 44.9C20.02 47.46 22.35 49.83 25.02 52.02C27.58 50.05 29.8 47.83 31.71 45.4C34 42.49 35.82 39.27 37.25 35.77C38.71 32.16 39.75 28.26 40.42 24.09C41.01 20.46 41.31 16.63 41.36 12.62C40.47 12.39 39.58 12.14 38.67 11.87C37.04 11.37 35.47 10.85 33.97 10.3L33.95 10.31Z" fill="url(#paint_linear_1006_8115_0)" fill-opacity="1.000000" fill-rule="evenodd"/>
		<path id="Vector" d="M19.58 43.28L20.04 42.99L20.57 43.17L20.43 42.65L20.77 42.22L20.23 42.18L19.92 41.73L19.72 42.23L19.18 42.39L19.6 42.73L19.58 43.28ZM30.42 43.28L30.4 42.74L30.82 42.39L30.3 42.24L30.09 41.73L29.79 42.18L29.23 42.22L29.57 42.64L29.44 43.18L29.95 42.99L30.42 43.28ZM27.8 44.35L27.92 43.82L28.42 43.59L27.96 43.32L27.89 42.77L27.48 43.12L26.93 43.02L27.15 43.51L26.87 43.99L27.41 43.94L27.8 44.35L27.8 44.35ZM25 44.72L25.25 44.24L25.8 44.14L25.42 43.76L25.5 43.21L25.01 43.46L24.51 43.21L24.59 43.75L24.2 44.14L24.74 44.23L25 44.72L25 44.72ZM22.19 44.35L22.55 43.95L23.11 43.99L22.85 43.53L23.06 43.02L22.53 43.12L22.11 42.76L22.05 43.29L21.57 43.58L22.07 43.8L22.2 44.34L22.19 44.35Z" fill="url(#paint_linear_1006_8116_0)" fill-opacity="1.000000" fill-rule="evenodd"/>
		<path id="Vector" d="M13.17 14.93L13.75 14.93L13.75 18.15L13.17 18.15L13.17 14.93ZM14.25 14.93L14.67 14.93L15.46 16.77L15.46 14.93L15.95 14.93L15.95 18.15L15.56 18.15L14.77 16.22L14.77 18.15L14.26 18.15L14.26 14.93L14.25 14.93ZM16.77 15.36L16.25 15.36L16.25 14.93L17.87 14.93L17.87 15.36L17.36 15.36L17.36 18.15L16.77 18.15L16.77 15.36ZM18.17 14.93L19.53 14.93L19.53 15.34L18.75 15.34L18.75 16.26L19.36 16.26L19.36 16.67L18.75 16.67L18.75 17.74L19.54 17.74L19.54 18.15L18.17 18.15L18.17 14.93ZM19.89 14.93L20.67 14.93C21.02 14.93 21.27 14.99 21.44 15.12C21.61 15.24 21.69 15.46 21.69 15.78C21.69 15.99 21.66 16.15 21.6 16.29C21.53 16.42 21.43 16.5 21.28 16.57L21.74 18.16L21.14 18.16L20.75 16.67L20.47 16.67L20.47 18.16L19.88 18.16L19.88 14.93L19.89 14.93ZM20.67 16.31C20.84 16.31 20.95 16.27 21.02 16.19C21.1 16.12 21.13 15.99 21.13 15.82C21.13 15.65 21.1 15.53 21.04 15.45C20.97 15.37 20.86 15.34 20.7 15.34L20.47 15.34L20.47 16.31L20.66 16.31L20.67 16.31ZM22.14 14.93L22.55 14.93L23.35 16.77L23.35 14.93L23.84 14.93L23.84 18.15L23.45 18.15L22.65 16.22L22.65 18.15L22.14 18.15L22.14 14.93L22.14 14.93ZM24.82 14.93L25.45 14.93L26.1 18.15L25.55 18.15L25.42 17.4L24.86 17.4L24.72 18.15L24.17 18.15L24.82 14.93ZM25.36 17.03L25.14 15.68L24.92 17.03L25.36 17.03ZM26.6 15.36L26.08 15.36L26.08 14.93L27.7 14.93L27.7 15.36L27.2 15.36L27.2 18.15L26.6 18.15L26.6 15.36ZM28.02 14.93L28.6 14.93L28.6 18.15L28.02 18.15L28.02 14.93ZM29.27 17.93C29.12 17.75 29.05 17.49 29.05 17.14L29.05 15.93C29.05 15.59 29.12 15.33 29.27 15.15C29.41 14.98 29.65 14.89 29.99 14.89C30.32 14.89 30.56 14.98 30.71 15.15C30.85 15.33 30.92 15.58 30.92 15.93L30.92 17.14C30.92 17.48 30.85 17.74 30.7 17.93C30.56 18.11 30.32 18.2 29.99 18.2C29.66 18.2 29.41 18.11 29.27 17.93ZM30.25 17.64C30.3 17.55 30.32 17.44 30.32 17.28L30.32 15.79C30.32 15.63 30.3 15.51 30.26 15.44C30.22 15.36 30.12 15.31 30 15.31C29.87 15.31 29.77 15.36 29.72 15.44C29.67 15.51 29.65 15.63 29.65 15.79L29.65 17.28C29.65 17.43 29.67 17.55 29.72 17.64C29.77 17.72 29.86 17.76 30 17.76C30.13 17.76 30.22 17.72 30.26 17.64L30.25 17.64ZM31.36 14.93L31.77 14.93L32.57 16.77L32.57 14.93L33.06 14.93L33.06 18.15L32.67 18.15L31.87 16.22L31.87 18.15L31.37 18.15L31.37 14.93L31.36 14.93ZM34.04 14.93L34.67 14.93L35.32 18.15L34.77 18.15L34.64 17.4L34.08 17.4L33.95 18.15L33.39 18.15L34.04 14.93ZM34.58 17.03L34.36 15.68L34.14 17.03L34.58 17.03ZM35.65 14.93L36.25 14.93L36.25 17.75L37.04 17.75L37.04 18.16L35.66 18.16L35.66 14.93L35.65 14.93ZM13.29 19.55L14.84 19.55C15.37 19.55 15.78 19.62 16.09 19.76C16.39 19.9 16.6 20.12 16.73 20.41C16.86 20.71 16.92 21.09 16.92 21.58L16.92 23.94C16.92 24.44 16.86 24.83 16.73 25.14C16.6 25.44 16.39 25.67 16.1 25.83C15.8 25.98 15.39 26.05 14.89 26.05L13.3 26.05L13.3 19.55L13.29 19.55ZM14.85 25.23C15.12 25.23 15.31 25.19 15.43 25.1C15.55 25 15.62 24.88 15.66 24.71C15.7 24.55 15.71 24.31 15.71 23.98L15.71 21.5C15.71 21.21 15.69 20.99 15.65 20.84C15.62 20.69 15.54 20.58 15.42 20.51C15.3 20.44 15.1 20.4 14.85 20.4L14.49 20.4L14.49 25.24L14.86 25.24L14.85 25.23ZM17.83 19.55L19.02 19.55L19.02 26.05L17.83 26.05L17.83 19.55ZM20.33 25.57C20.06 25.19 19.92 24.64 19.92 23.91L19.92 21.73C19.92 20.99 20.07 20.43 20.35 20.05C20.62 19.67 21.11 19.48 21.8 19.48C22.45 19.48 22.91 19.64 23.19 19.95C23.47 20.27 23.61 20.75 23.61 21.37L23.61 21.71L22.47 21.71L22.47 21.34C22.47 21.11 22.45 20.92 22.42 20.78C22.39 20.64 22.33 20.54 22.24 20.46C22.14 20.39 22 20.35 21.81 20.35C21.61 20.35 21.46 20.4 21.37 20.49C21.27 20.59 21.21 20.71 21.17 20.86C21.14 21.01 21.13 21.21 21.13 21.45L21.13 24.17C21.13 24.54 21.18 24.81 21.28 25C21.38 25.18 21.57 25.27 21.85 25.27C22.12 25.27 22.3 25.17 22.41 24.98C22.52 24.79 22.57 24.5 22.57 24.12L22.57 23.51L21.86 23.51L21.86 22.77L23.64 22.77L23.64 26.07L22.86 26.07L22.78 25.43C22.57 25.91 22.2 26.15 21.67 26.15C21.05 26.15 20.6 25.96 20.33 25.58L20.33 25.57ZM24.59 19.55L25.77 19.55L25.77 26.05L24.59 26.05L24.59 19.55ZM27.44 20.43L26.39 20.43L26.39 19.55L29.66 19.55L29.66 20.43L28.64 20.43L28.64 26.06L27.44 26.06L27.44 20.43ZM31.07 19.55L32.35 19.55L33.67 26.05L32.56 26.05L32.3 24.55L31.16 24.55L30.89 26.05L29.77 26.05L31.08 19.55L31.07 19.55ZM32.17 23.8L31.72 21.07L31.28 23.8L32.17 23.8L32.17 23.8ZM34.32 19.55L35.52 19.55L35.52 25.25L37.11 25.25L37.11 26.06L34.32 26.06L34.32 19.56L34.32 19.55ZM13 27.35L13.63 27.35L13.98 30.05L14.42 27.36L14.94 27.36L15.39 30.05L15.73 27.35L16.36 27.35L15.77 31.51L15.15 31.51L14.69 28.72L14.22 31.51L13.59 31.51L13 27.35ZM16.84 27.35L18.6 27.35L18.6 27.88L17.6 27.88L17.6 29.08L18.39 29.08L18.39 29.61L17.6 29.61L17.6 30.99L18.61 30.99L18.61 31.51L16.84 31.51L16.84 27.34L16.84 27.35ZM19.05 27.35L19.82 27.35L19.82 30.99L20.84 30.99L20.84 31.51L19.05 31.51L19.05 27.34L19.05 27.35ZM21.23 27.35L22 27.35L22 30.99L23.02 30.99L23.02 31.51L21.23 31.51L21.23 27.34L21.23 27.35ZM23.39 29.59L24.64 29.59L24.64 30.06L23.39 30.06L23.39 29.59ZM25.25 27.35L26.28 27.35C26.68 27.35 26.98 27.43 27.2 27.59C27.41 27.75 27.51 28.03 27.51 28.42C27.51 28.67 27.46 28.87 27.35 29.01C27.25 29.15 27.1 29.24 26.9 29.28C27.39 29.37 27.63 29.71 27.63 30.3C27.63 30.71 27.53 31 27.34 31.21C27.14 31.41 26.85 31.51 26.46 31.51L25.25 31.51L25.25 27.35ZM26.27 29.05C26.5 29.05 26.64 29 26.73 28.9C26.81 28.8 26.85 28.64 26.85 28.43C26.85 28.21 26.8 28.07 26.7 27.99C26.59 27.92 26.42 27.88 26.17 27.88L26.01 27.88L26.01 29.05L26.27 29.05ZM26.3 30.98C26.52 30.98 26.68 30.92 26.77 30.81C26.85 30.71 26.89 30.53 26.89 30.29C26.89 30.05 26.85 29.86 26.75 29.74C26.66 29.63 26.5 29.57 26.27 29.57L26 29.57L26 30.98L26.3 30.98L26.3 30.98ZM28.13 27.35L29.89 27.35L29.89 27.88L28.89 27.88L28.89 29.08L29.68 29.08L29.68 29.61L28.89 29.61L28.89 30.99L29.9 30.99L29.9 31.51L28.13 31.51L28.13 27.34L28.13 27.35ZM30.37 27.35L31.12 27.35L31.12 31.51L30.37 31.51L30.37 27.35ZM31.77 27.35L32.3 27.35L33.32 29.72L33.32 27.35L33.96 27.35L33.96 31.51L33.45 31.51L32.42 29.03L32.42 31.51L31.77 31.51L31.77 27.35L31.77 27.35ZM34.79 31.2C34.62 30.95 34.52 30.6 34.52 30.14L34.52 28.74C34.52 28.27 34.61 27.91 34.8 27.67C34.97 27.43 35.28 27.31 35.72 27.31C36.14 27.31 36.44 27.41 36.62 27.61C36.8 27.82 36.89 28.11 36.89 28.52L36.89 28.73L36.16 28.73L36.16 28.5C36.16 28.35 36.15 28.23 36.13 28.14C36.11 28.04 36.07 27.98 36.01 27.93C35.95 27.88 35.86 27.86 35.74 27.86C35.61 27.86 35.52 27.89 35.45 27.95C35.39 28.01 35.35 28.09 35.33 28.18C35.31 28.28 35.3 28.4 35.3 28.56L35.3 30.3C35.3 30.54 35.33 30.71 35.39 30.83C35.46 30.95 35.58 31.01 35.75 31.01C35.92 31.01 36.05 30.95 36.11 30.83C36.17 30.71 36.21 30.51 36.21 30.27L36.21 29.88L35.76 29.88L35.76 29.41L36.9 29.41L36.9 31.52L36.4 31.52L36.35 31.12C36.22 31.43 35.99 31.58 35.64 31.58C35.25 31.58 34.96 31.46 34.79 31.21L34.79 31.2ZM16.37 33.37L16.72 33.37L16.72 35.31L16.37 35.31L16.37 33.37ZM17.03 33.37L17.28 33.37L17.76 34.47L17.76 33.37L18.05 33.37L18.05 35.31L17.82 35.31L17.34 34.15L17.34 35.31L17.03 35.31L17.03 33.37ZM18.35 33.37L18.6 33.37L19.07 34.47L19.07 33.37L19.37 33.37L19.37 35.31L19.13 35.31L18.65 34.15L18.65 35.31L18.35 35.31L18.35 33.37ZM19.76 35.18C19.67 35.07 19.63 34.91 19.63 34.7L19.63 33.97C19.63 33.77 19.67 33.61 19.76 33.5C19.85 33.4 19.99 33.35 20.2 33.35C20.4 33.35 20.54 33.4 20.63 33.5C20.72 33.61 20.76 33.77 20.76 33.97L20.76 34.7C20.76 34.91 20.72 35.06 20.63 35.18C20.55 35.28 20.4 35.34 20.2 35.34C20 35.34 19.85 35.28 19.77 35.18L19.76 35.18ZM20.35 35C20.38 34.95 20.39 34.88 20.39 34.79L20.39 33.89C20.39 33.8 20.38 33.73 20.35 33.68C20.32 33.63 20.27 33.61 20.19 33.61C20.1 33.61 20.05 33.63 20.02 33.68C20 33.73 19.98 33.8 19.98 33.89L19.98 34.79C19.98 34.88 20 34.95 20.02 35C20.05 35.05 20.1 35.07 20.19 35.07C20.27 35.07 20.32 35.05 20.35 35L20.35 35ZM20.92 33.37L21.23 33.37L21.49 34.74L21.73 33.37L22.05 33.37L21.66 35.31L21.31 35.31L20.92 33.37ZM22.47 33.37L22.85 33.37L23.25 35.31L22.92 35.31L22.84 34.86L22.5 34.86L22.42 35.31L22.08 35.31L22.47 33.37ZM22.8 34.64L22.67 33.82L22.53 34.64L22.8 34.64L22.8 34.64ZM23.55 33.63L23.24 33.63L23.24 33.37L24.21 33.37L24.21 33.63L23.9 33.63L23.9 35.31L23.55 35.31L23.55 33.63L23.55 33.63ZM24.4 33.37L24.75 33.37L24.75 35.31L24.4 35.31L24.4 33.37ZM25.16 35.18C25.07 35.07 25.03 34.91 25.03 34.7L25.03 33.97C25.03 33.77 25.07 33.61 25.16 33.5C25.25 33.4 25.39 33.35 25.6 33.35C25.8 33.35 25.94 33.4 26.03 33.5C26.12 33.61 26.16 33.77 26.16 33.97L26.16 34.7C26.16 34.91 26.12 35.06 26.03 35.18C25.95 35.28 25.8 35.34 25.6 35.34C25.41 35.34 25.25 35.28 25.17 35.18L25.16 35.18ZM25.75 35C25.78 34.95 25.8 34.88 25.8 34.79L25.8 33.89C25.8 33.8 25.78 33.73 25.75 33.68C25.72 33.63 25.67 33.61 25.6 33.61C25.52 33.61 25.46 33.63 25.43 33.68C25.4 33.73 25.39 33.8 25.39 33.89L25.39 34.79C25.39 34.88 25.4 34.95 25.43 35C25.46 35.05 25.51 35.07 25.6 35.07C25.68 35.07 25.73 35.05 25.75 35ZM26.42 33.37L26.67 33.37L27.14 34.47L27.14 33.37L27.44 33.37L27.44 35.31L27.2 35.31L26.72 34.15L26.72 35.31L26.42 35.31L26.42 33.37ZM28.62 33.37L29 33.37L29.39 35.31L29.06 35.31L28.98 34.86L28.64 34.86L28.56 35.31L28.22 35.31L28.62 33.37ZM28.95 34.64L28.81 33.82L28.67 34.64L28.94 34.64L28.95 34.64ZM29.47 33.37L29.77 33.37L29.94 34.63L30.14 33.38L30.38 33.38L30.59 34.63L30.75 33.37L31.04 33.37L30.77 35.31L30.47 35.31L30.26 34.01L30.05 35.31L29.75 35.31L29.47 33.37L29.47 33.37ZM31.5 33.37L31.88 33.37L32.27 35.31L31.95 35.31L31.87 34.86L31.52 34.86L31.45 35.31L31.11 35.31L31.5 33.37ZM31.83 34.64L31.7 33.82L31.56 34.64L31.82 34.64L31.83 34.64ZM32.47 33.37L32.95 33.37C33.15 33.37 33.3 33.4 33.41 33.48C33.52 33.56 33.56 33.69 33.56 33.88C33.56 34 33.54 34.11 33.5 34.18C33.47 34.25 33.4 34.31 33.32 34.35L33.59 35.3L33.23 35.3L33 34.41L32.82 34.41L32.82 35.3L32.47 35.3L32.47 33.36L32.47 33.37ZM32.95 34.2C33.05 34.2 33.12 34.18 33.16 34.13C33.2 34.08 33.22 34.01 33.22 33.9C33.22 33.79 33.2 33.72 33.17 33.68C33.13 33.64 33.06 33.61 32.96 33.61L32.82 33.61L32.82 34.2L32.94 34.2L32.95 34.2ZM33.83 33.37L34.3 33.37C34.45 33.37 34.58 33.39 34.67 33.43C34.75 33.48 34.82 33.54 34.86 33.62C34.89 33.71 34.92 33.83 34.92 33.97L34.92 34.68C34.92 34.83 34.89 34.95 34.86 35.03C34.82 35.13 34.76 35.19 34.67 35.24C34.57 35.29 34.46 35.31 34.31 35.31L33.83 35.31L33.83 33.37ZM34.3 35.06C34.37 35.06 34.43 35.05 34.47 35.02C34.5 34.99 34.52 34.96 34.53 34.91C34.54 34.86 34.55 34.79 34.55 34.69L34.55 33.94C34.55 33.86 34.55 33.79 34.53 33.74C34.52 33.7 34.5 33.67 34.46 33.65C34.42 33.62 34.37 33.61 34.29 33.61L34.18 33.61L34.18 35.06L34.3 35.06L34.3 35.06Z" fill="url(#paint_linear_1006_8117_0)" fill-opacity="1.000000" fill-rule="nonzero"/>
	</g>
</svg>
