<svg width="20.000000" height="20.000000" viewBox="0 0 20 20" fill="none" xmlns="http://www.w3.org/2000/svg" xmlns:xlink="http://www.w3.org/1999/xlink">
	<desc>
			Created with Pixso.
	</desc>
	<defs/>
	<g opacity="0.000000">
		<path id="Vector" d="M0 0L20 0L20 20L0 20L0 0Z" fill="#F1FD5F" fill-opacity="1.000000" fill-rule="evenodd"/>
	</g>
	<path id="Vector" d="M10 18.2C9.7 18.21 9.42 18.14 9.16 18L8.91 17.85C6.96 16.75 5.34 15.15 4.22 13.22C3.09 11.29 2.5 9.09 2.5 6.85L2.5 6.74C2.49 6.44 2.57 6.15 2.71 5.89C2.86 5.64 3.07 5.43 3.33 5.28L9.16 2C9.42 1.85 9.7 1.77 10 1.77C10.29 1.77 10.58 1.85 10.83 2L16.66 5.28C16.92 5.43 17.13 5.64 17.28 5.89C17.42 6.15 17.5 6.44 17.5 6.74L17.5 6.85C17.49 9.09 16.9 11.29 15.77 13.22C14.64 15.16 13.01 16.75 11.06 17.85L10.81 18C10.56 18.13 10.28 18.2 10 18.2Z" fill="#F1FD5F" fill-opacity="1.000000" fill-rule="nonzero"/>
</svg>
