<svg width="127.282959" height="22.011719" viewBox="0 0 127.283 22.0117" fill="none" xmlns="http://www.w3.org/2000/svg" xmlns:xlink="http://www.w3.org/1999/xlink">
	<desc>
			Created with Pixso.
	</desc>
	<defs>
		<clipPath id="clip1014_8237">
			<rect id="24 G/ic-star-glyph-24" rx="0.000000" width="21.280989" height="21.280989" transform="translate(0.365293 0.365293)" fill="white" fill-opacity="0"/>
		</clipPath>
		<clipPath id="clip1014_8238">
			<rect id="24 G/ic-star-glyph-24" rx="0.000000" width="21.280989" height="21.280989" transform="translate(26.681456 0.365293)" fill="white" fill-opacity="0"/>
		</clipPath>
		<clipPath id="clip1014_8239">
			<rect id="24 G/ic-star-glyph-24" rx="0.000000" width="21.280989" height="21.280989" transform="translate(53.000790 0.365293)" fill="white" fill-opacity="0"/>
		</clipPath>
		<clipPath id="clip1014_8240">
			<rect id="24 G/ic-star-glyph-24" rx="0.000000" width="21.280989" height="21.280989" transform="translate(79.320129 0.365293)" fill="white" fill-opacity="0"/>
		</clipPath>
		<clipPath id="clip1014_8241">
			<rect id="24 G/ic-star-glyph-24" rx="0.000000" width="21.280989" height="21.280989" transform="translate(105.636780 0.365293)" fill="white" fill-opacity="0"/>
		</clipPath>
	</defs>
	<g clip-path="url(#clip1014_8237)">
		<path id="Shape" d="M10.56 3.65C11.02 2.72 11.25 2.25 11.56 2.1C11.84 1.97 12.15 1.97 12.43 2.1C12.74 2.25 12.97 2.72 13.43 3.65L15 6.84C15.14 7.12 15.21 7.25 15.31 7.36C15.39 7.45 15.5 7.53 15.62 7.59C15.75 7.65 15.9 7.67 16.21 7.71L19.72 8.23C20.75 8.37 21.27 8.45 21.51 8.7C21.72 8.92 21.81 9.22 21.77 9.52C21.73 9.86 21.36 10.23 20.61 10.95L18.07 13.43C17.85 13.65 17.74 13.76 17.66 13.88C17.6 14 17.56 14.12 17.55 14.25C17.53 14.4 17.55 14.55 17.61 14.85L18.21 18.35C18.38 19.38 18.47 19.89 18.31 20.2C18.16 20.46 17.91 20.65 17.61 20.7C17.27 20.77 16.81 20.53 15.89 20.04L12.74 18.39C12.47 18.24 12.33 18.17 12.19 18.14C12.06 18.12 11.93 18.12 11.8 18.14C11.66 18.17 11.52 18.24 11.25 18.39L8.11 20.04C7.18 20.53 6.72 20.77 6.38 20.7C6.08 20.65 5.83 20.46 5.68 20.2C5.52 19.89 5.61 19.38 5.78 18.35L6.38 14.85C6.44 14.55 6.46 14.4 6.44 14.25C6.43 14.12 6.39 14 6.33 13.88C6.25 13.76 6.14 13.65 5.92 13.43L3.38 10.95C2.63 10.23 2.26 9.86 2.22 9.52C2.18 9.22 2.27 8.92 2.48 8.7C2.72 8.45 3.24 8.37 4.27 8.23L7.78 7.71C8.09 7.67 8.24 7.65 8.37 7.59C8.49 7.53 8.6 7.45 8.68 7.36C8.78 7.25 8.85 7.12 8.99 6.84L10.56 3.65Z" fill="#000000" fill-opacity="1.000000" fill-rule="nonzero"/>
	</g>
	<g clip-path="url(#clip1014_8238)">
		<path id="Shape" d="M36.88 3.65C37.34 2.72 37.57 2.25 37.88 2.1C38.15 1.97 38.47 1.97 38.74 2.1C39.05 2.25 39.29 2.72 39.75 3.65L41.32 6.84C41.46 7.12 41.52 7.25 41.62 7.36C41.71 7.45 41.82 7.53 41.93 7.59C42.07 7.65 42.22 7.67 42.52 7.71L46.04 8.23C47.07 8.37 47.59 8.45 47.82 8.7C48.03 8.92 48.13 9.22 48.09 9.52C48.05 9.86 47.67 10.23 46.93 10.95L44.38 13.43C44.16 13.65 44.05 13.76 43.98 13.88C43.92 14 43.88 14.12 43.86 14.25C43.84 14.4 43.87 14.55 43.92 14.85L44.52 18.35C44.7 19.38 44.79 19.89 44.62 20.2C44.48 20.46 44.22 20.65 43.92 20.7C43.58 20.77 43.12 20.53 42.2 20.04L39.06 18.39C38.78 18.24 38.65 18.17 38.5 18.14C38.38 18.12 38.25 18.12 38.12 18.14C37.98 18.17 37.84 18.24 37.57 18.39L34.42 20.04C33.5 20.53 33.04 20.77 32.7 20.7C32.4 20.65 32.15 20.46 32 20.2C31.84 19.89 31.92 19.38 32.1 18.35L32.7 14.85C32.75 14.55 32.78 14.4 32.76 14.25C32.75 14.12 32.71 14 32.64 13.88C32.57 13.76 32.46 13.65 32.24 13.43L29.7 10.95C28.95 10.23 28.58 9.86 28.53 9.52C28.49 9.22 28.59 8.92 28.8 8.7C29.04 8.45 29.55 8.37 30.58 8.23L34.1 7.71C34.4 7.67 34.56 7.65 34.69 7.59C34.81 7.53 34.91 7.45 35 7.36C35.1 7.25 35.17 7.12 35.3 6.84L36.88 3.65Z" fill="#000000" fill-opacity="1.000000" fill-rule="nonzero"/>
	</g>
	<g clip-path="url(#clip1014_8239)">
		<path id="Shape" d="M63.2 3.65C63.66 2.72 63.89 2.25 64.2 2.1C64.47 1.97 64.79 1.97 65.06 2.1C65.37 2.25 65.6 2.72 66.07 3.65L67.64 6.84C67.77 7.12 67.84 7.25 67.94 7.36C68.03 7.45 68.14 7.53 68.25 7.59C68.39 7.65 68.54 7.67 68.84 7.71L72.36 8.23C73.39 8.37 73.91 8.45 74.14 8.7C74.35 8.92 74.45 9.22 74.41 9.52C74.37 9.86 73.99 10.23 73.25 10.95L70.7 13.43C70.48 13.65 70.37 13.76 70.3 13.88C70.24 14 70.2 14.12 70.18 14.25C70.16 14.4 70.19 14.55 70.24 14.85L70.84 18.35C71.02 19.38 71.11 19.89 70.94 20.2C70.8 20.46 70.54 20.65 70.24 20.7C69.9 20.77 69.44 20.53 68.52 20.04L65.38 18.39C65.1 18.24 64.97 18.17 64.82 18.14C64.7 18.12 64.57 18.12 64.44 18.14C64.29 18.17 64.16 18.24 63.89 18.39L60.74 20.04C59.82 20.53 59.36 20.77 59.02 20.7C58.72 20.65 58.46 20.46 58.32 20.2C58.15 19.89 58.24 19.38 58.42 18.35L59.02 14.85C59.07 14.55 59.1 14.4 59.08 14.25C59.06 14.12 59.02 14 58.96 13.88C58.89 13.76 58.78 13.65 58.56 13.43L56.02 10.95C55.27 10.23 54.9 9.86 54.85 9.52C54.81 9.22 54.91 8.92 55.12 8.7C55.36 8.45 55.87 8.37 56.9 8.23L60.42 7.71C60.72 7.67 60.88 7.65 61.01 7.59C61.13 7.53 61.23 7.45 61.32 7.36C61.42 7.25 61.49 7.12 61.62 6.84L63.2 3.65Z" fill="#000000" fill-opacity="1.000000" fill-rule="nonzero"/>
	</g>
	<g clip-path="url(#clip1014_8240)">
		<path id="Shape" d="M89.52 3.65C89.98 2.72 90.21 2.25 90.52 2.1C90.79 1.97 91.11 1.97 91.38 2.1C91.69 2.25 91.92 2.72 92.38 3.65L93.96 6.84C94.09 7.12 94.16 7.25 94.26 7.36C94.35 7.45 94.46 7.53 94.57 7.59C94.71 7.65 94.86 7.67 95.16 7.71L98.68 8.23C99.71 8.37 100.23 8.45 100.46 8.7C100.67 8.92 100.77 9.22 100.73 9.52C100.68 9.86 100.31 10.23 99.57 10.95L97.02 13.43C96.8 13.65 96.69 13.76 96.62 13.88C96.56 14 96.52 14.12 96.5 14.25C96.48 14.4 96.51 14.55 96.56 14.85L97.16 18.35C97.34 19.38 97.43 19.89 97.26 20.2C97.12 20.46 96.86 20.65 96.56 20.7C96.22 20.77 95.76 20.53 94.84 20.04L91.69 18.39C91.42 18.24 91.29 18.17 91.14 18.14C91.02 18.12 90.88 18.12 90.76 18.14C90.61 18.17 90.48 18.24 90.21 18.39L87.06 20.04C86.14 20.53 85.68 20.77 85.34 20.7C85.04 20.65 84.78 20.46 84.64 20.2C84.47 19.89 84.56 19.38 84.74 18.35L85.34 14.85C85.39 14.55 85.42 14.4 85.4 14.25C85.38 14.12 85.34 14 85.28 13.88C85.21 13.76 85.1 13.65 84.88 13.43L82.33 10.95C81.59 10.23 81.22 9.86 81.17 9.52C81.13 9.22 81.23 8.92 81.44 8.7C81.67 8.45 82.19 8.37 83.22 8.23L86.74 7.71C87.04 7.67 87.19 7.65 87.33 7.59C87.44 7.53 87.55 7.45 87.64 7.36C87.74 7.25 87.81 7.12 87.94 6.84L89.52 3.65Z" fill="#000000" fill-opacity="1.000000" fill-rule="nonzero"/>
	</g>
	<g clip-path="url(#clip1014_8241)">
		<path id="Shape" d="M115.83 3.65C116.29 2.72 116.52 2.25 116.84 2.1C117.11 1.97 117.43 1.97 117.7 2.1C118.01 2.25 118.24 2.72 118.7 3.65L120.27 6.84C120.41 7.12 120.48 7.25 120.58 7.36C120.67 7.45 120.77 7.53 120.89 7.59C121.02 7.65 121.17 7.67 121.48 7.71L125 8.23C126.03 8.37 126.54 8.45 126.78 8.7C126.99 8.92 127.09 9.22 127.05 9.52C127 9.86 126.63 10.23 125.88 10.95L123.34 13.43C123.12 13.65 123.01 13.76 122.94 13.88C122.87 14 122.83 14.12 122.82 14.25C122.8 14.4 122.83 14.55 122.88 14.85L123.48 18.35C123.65 19.38 123.74 19.89 123.58 20.2C123.43 20.46 123.18 20.65 122.88 20.7C122.54 20.77 122.08 20.53 121.16 20.04L118.01 18.39C117.74 18.24 117.6 18.17 117.46 18.14C117.33 18.12 117.2 18.12 117.07 18.14C116.93 18.17 116.8 18.24 116.52 18.39L113.38 20.04C112.46 20.53 111.99 20.77 111.65 20.7C111.36 20.65 111.1 20.46 110.96 20.2C110.79 19.89 110.88 19.38 111.06 18.35L111.66 14.85C111.71 14.55 111.73 14.4 111.72 14.25C111.7 14.12 111.66 14 111.6 13.88C111.53 13.76 111.42 13.65 111.2 13.43L108.65 10.95C107.91 10.23 107.53 9.86 107.49 9.52C107.45 9.22 107.55 8.92 107.75 8.7C107.99 8.45 108.51 8.37 109.54 8.23L113.05 7.71C113.36 7.67 113.51 7.65 113.64 7.59C113.76 7.53 113.87 7.45 113.96 7.36C114.06 7.25 114.12 7.12 114.26 6.84L115.83 3.65Z" fill="#000000" fill-opacity="1.000000" fill-rule="nonzero"/>
	</g>
</svg>
