<svg width="26.495361" height="24.000000" viewBox="0 0 26.4954 24" fill="none" xmlns="http://www.w3.org/2000/svg" xmlns:xlink="http://www.w3.org/1999/xlink">
	<desc>
			Created with Pixso.
	</desc>
	<defs>
		<clipPath id="clip1014_8281">
			<rect id="fi_159454" rx="0.000000" width="25.495413" height="23.000000" transform="translate(0.500000 0.500000)" fill="white" fill-opacity="0"/>
		</clipPath>
	</defs>
	<rect id="fi_159454" rx="0.000000" width="25.495413" height="23.000000" transform="translate(0.500000 0.500000)" fill="#FFFFFF" fill-opacity="0"/>
	<g clip-path="url(#clip1014_8281)">
		<path id="Vector" d="M25.96 17.48L16.68 2.92C15.16 0.51 11.33 0.51 9.82 2.92L0.53 17.48C-0.99 19.89 0.9 22.88 3.96 22.88L22.5 22.88C25.56 22.88 27.48 19.86 25.96 17.48ZM13.24 19.65C12.44 19.65 11.76 19.04 11.76 18.31C11.76 17.58 12.44 16.97 13.24 16.97C14.05 16.97 14.72 17.58 14.69 18.34C14.73 19.04 14.02 19.65 13.24 19.65ZM14.59 10.99C14.52 12.03 14.45 13.06 14.39 14.1C14.35 14.43 14.35 14.74 14.35 15.07C14.32 15.62 13.85 16.04 13.24 16.04C12.64 16.04 12.17 15.65 12.13 15.1C12.03 13.49 11.93 11.9 11.83 10.28C11.8 9.86 11.76 9.43 11.73 9C11.73 8.3 12.16 7.73 12.87 7.54C13.58 7.39 14.28 7.7 14.59 8.3C14.69 8.52 14.73 8.73 14.73 8.98C14.69 9.65 14.62 10.32 14.59 10.99Z" fill="#F1FD5F" fill-opacity="1.000000" fill-rule="nonzero"/>
	</g>
</svg>
